<?xml version="1.0" encoding="UTF-8" ?>
<!DOCTYPE svg PUBLIC "-//W3C//DTD SVG 1.1//EN" "http://www.w3.org/Graphics/SVG/1.1/DTD/svg11.dtd">
<svg width="1024pt" height="1024pt" viewBox="0 0 1024 1024" version="1.1" xmlns="http://www.w3.org/2000/svg">
<g id="#fffaf4ff">
<path fill="#fffaf4" opacity="1.00" d=" M 0.00 0.00 L 1024.00 0.00 L 1024.00 1024.00 L 0.00 1024.00 L 0.00 0.00 M 223.38 356.45 C 210.18 357.61 197.09 360.15 184.65 364.79 C 134.90 382.00 96.19 426.58 84.71 477.78 C 77.97 508.96 80.19 542.20 92.10 571.87 C 101.08 594.57 115.00 615.53 133.43 631.64 C 154.44 649.99 180.60 662.15 208.02 667.06 C 231.16 670.88 255.18 669.43 277.66 662.73 C 296.04 657.39 313.05 647.83 327.92 635.86 C 344.12 622.98 357.68 606.92 368.02 589.02 C 378.19 570.31 384.30 549.28 385.15 527.98 C 385.66 523.53 383.10 518.76 378.74 517.34 C 374.73 516.03 370.85 518.35 366.98 519.10 C 355.81 521.37 343.53 519.54 334.15 512.83 C 330.92 510.65 329.37 506.95 326.94 504.04 C 325.60 502.36 323.32 502.16 321.39 501.64 C 315.98 500.53 310.54 499.08 305.80 496.17 C 300.15 492.66 295.13 487.93 291.97 482.02 C 288.04 474.90 285.01 466.65 286.51 458.42 C 286.94 455.34 288.08 451.77 285.92 449.08 C 283.58 446.58 280.13 445.59 277.46 443.51 C 267.91 436.41 262.13 425.05 260.59 413.37 C 258.43 401.90 260.58 389.67 266.74 379.73 C 268.68 376.72 272.25 374.87 273.34 371.32 C 274.23 367.59 273.19 363.31 270.27 360.73 C 268.16 358.68 265.15 358.17 262.38 357.63 C 249.50 355.48 236.37 355.52 223.38 356.45 M 333.18 363.22 C 330.78 363.38 329.71 365.81 329.87 367.94 C 329.87 373.15 329.42 378.44 330.30 383.59 C 331.81 385.64 334.76 385.03 336.98 385.27 C 341.51 385.06 346.17 385.80 350.61 384.65 C 350.82 384.31 351.25 383.64 351.46 383.31 C 351.89 377.64 351.72 371.91 351.59 366.23 C 351.60 363.95 349.01 362.83 347.06 362.82 C 342.44 362.78 337.76 362.49 333.18 363.22 M 297.19 393.14 C 295.54 393.69 294.32 395.32 294.21 397.06 C 293.54 401.68 293.98 406.36 293.86 411.01 C 293.89 414.64 293.58 418.30 294.19 421.91 C 294.52 424.23 296.53 426.21 298.95 426.10 C 306.32 426.30 313.70 426.21 321.07 426.19 C 323.54 426.50 325.92 424.48 325.69 421.94 C 325.85 415.29 325.55 408.65 325.70 402.01 C 325.65 399.89 325.88 397.71 325.35 395.65 C 324.18 393.89 322.16 392.83 320.06 392.83 C 315.04 392.64 310.02 392.89 305.00 392.78 C 302.40 392.82 299.74 392.54 297.19 393.14 M 636.46 394.74 C 630.86 395.39 625.85 400.27 625.59 405.99 C 625.30 409.64 626.09 413.57 628.68 416.30 C 634.56 422.68 646.12 422.35 651.29 415.26 C 655.40 409.80 654.14 401.33 648.74 397.21 C 645.28 394.52 640.65 394.13 636.46 394.74 M 470.61 402.58 C 460.36 406.81 451.51 414.30 445.69 423.74 C 429.92 447.57 433.48 482.13 453.84 502.20 C 459.94 507.77 466.96 512.52 474.86 515.13 C 486.13 518.88 498.41 519.57 510.04 517.16 C 521.21 515.17 531.48 509.41 539.77 501.78 C 543.45 497.88 546.71 493.47 548.91 488.55 C 541.93 485.22 535.04 481.73 527.99 478.57 C 525.00 483.22 521.50 487.69 516.81 490.73 C 510.92 494.45 504.00 496.45 497.06 496.67 C 489.65 496.32 482.09 494.44 476.00 490.07 C 467.43 484.23 462.40 474.19 461.09 464.07 C 460.72 457.26 460.54 450.22 462.75 443.67 C 464.89 437.47 468.19 431.50 473.28 427.23 C 479.16 421.92 487.17 419.75 494.92 419.21 C 503.97 418.82 513.49 421.46 520.11 427.86 C 523.71 431.13 526.01 435.47 528.80 439.39 C 535.45 435.92 542.25 432.77 549.06 429.66 C 542.47 414.85 528.56 403.72 512.84 400.03 C 498.95 396.73 483.91 397.09 470.61 402.58 M 362.13 406.07 C 360.32 405.94 358.82 407.23 358.97 409.11 C 358.73 415.22 358.35 421.47 359.36 427.54 C 359.64 427.81 360.20 428.35 360.48 428.63 C 365.26 429.53 370.18 429.15 375.02 429.25 C 377.19 429.07 380.08 429.51 381.43 427.36 C 382.44 424.70 382.14 421.78 382.23 418.99 C 382.12 415.17 382.55 411.24 381.54 407.51 C 380.22 405.88 377.91 406.09 376.05 405.87 C 371.41 405.77 366.75 405.64 362.13 406.07 M 684.39 432.41 C 679.07 434.61 673.84 437.86 670.84 442.92 C 667.93 447.56 666.99 453.20 667.44 458.59 C 667.98 463.13 669.51 467.85 673.02 470.97 C 676.99 474.79 682.15 477.08 687.40 478.56 C 692.76 480.02 698.15 481.42 703.61 482.45 C 708.14 483.38 712.91 484.40 716.60 487.37 C 718.50 488.83 719.25 491.38 718.77 493.69 C 717.56 497.03 714.33 499.35 710.93 500.05 C 706.04 501.05 700.98 500.63 696.11 499.77 C 688.30 498.21 681.39 493.95 674.99 489.40 C 671.43 494.33 667.13 498.74 664.09 504.03 L 664.17 504.67 C 678.39 517.12 698.82 520.74 717.05 517.22 C 726.31 515.72 735.77 510.70 739.84 501.87 C 742.90 493.99 742.64 484.43 737.60 477.40 C 734.30 472.70 728.83 470.32 723.60 468.43 C 716.37 465.85 708.81 464.44 701.36 462.65 C 697.74 461.68 693.78 460.63 691.26 457.65 C 689.36 455.19 690.25 451.45 692.61 449.62 C 696.94 445.78 703.17 445.69 708.59 446.48 C 716.01 447.58 722.72 451.28 728.59 455.80 C 732.37 450.95 736.42 446.31 740.08 441.37 C 737.06 438.83 734.00 436.21 730.34 434.62 C 716.05 428.16 699.16 426.65 684.39 432.41 M 802.60 429.46 C 793.19 430.21 784.19 434.86 778.03 441.99 C 778.10 438.31 778.07 434.63 777.92 430.95 C 770.62 430.98 763.32 430.99 756.02 430.91 C 755.95 472.34 755.93 513.77 756.05 555.19 C 764.03 555.31 772.01 555.33 779.99 555.24 C 780.06 539.07 779.94 522.90 780.02 506.74 C 786.16 512.92 794.25 517.38 803.03 518.14 C 817.60 520.18 833.75 514.73 842.43 502.46 C 849.79 492.72 851.84 479.91 850.74 467.99 C 849.61 452.04 838.88 436.69 823.65 431.30 C 816.87 429.26 809.63 428.18 802.60 429.46 M 591.66 432.67 C 587.93 434.26 585.03 437.16 582.36 440.12 C 581.89 437.07 581.35 434.04 580.83 431.00 C 574.21 430.96 567.59 430.99 560.97 431.00 C 561.02 459.33 560.89 487.65 561.03 515.97 C 568.67 516.05 576.31 516.06 583.95 515.98 C 584.12 500.29 583.85 484.61 584.04 468.93 C 584.16 463.05 587.27 457.35 592.32 454.29 C 598.57 450.04 606.49 449.84 613.71 450.93 C 613.84 444.02 613.79 437.11 613.71 430.20 C 606.33 429.80 598.50 429.36 591.66 432.67 M 627.81 433.00 C 627.66 460.60 627.85 488.21 627.77 515.82 C 635.54 516.26 643.34 515.95 651.12 516.00 C 651.20 487.65 651.25 459.30 651.12 430.95 C 643.50 430.96 635.87 430.86 628.26 431.02 C 628.15 431.51 627.92 432.50 627.81 433.00 M 856.03 431.02 C 867.25 457.14 878.33 483.31 889.60 509.41 C 890.32 511.35 891.58 513.50 890.57 515.59 C 888.45 521.32 886.43 527.55 881.66 531.68 C 876.38 535.65 869.44 535.78 863.12 535.93 C 863.22 542.35 863.13 548.76 863.10 555.18 C 867.73 555.39 872.36 555.38 876.99 555.14 C 886.46 554.73 895.50 549.68 901.12 542.11 C 904.02 538.21 906.62 534.06 908.53 529.58 C 912.12 521.07 915.53 512.49 918.80 503.84 C 924.37 490.10 930.21 476.47 935.84 462.75 C 940.13 452.16 944.91 441.76 948.77 431.00 C 940.58 430.98 932.40 430.93 924.23 431.01 C 918.66 447.32 912.55 463.45 906.57 479.61 C 905.64 482.38 904.64 485.13 903.30 487.74 C 896.06 468.74 888.54 449.84 881.13 430.92 C 872.76 431.04 864.39 430.93 856.03 431.02 M 332.33 443.26 C 330.14 444.24 329.21 446.66 329.35 448.94 C 329.27 458.97 329.26 469.00 329.26 479.03 C 329.39 481.13 329.11 483.60 330.68 485.27 C 332.45 487.43 335.49 487.16 338.00 487.23 C 349.01 487.10 360.04 487.38 371.05 487.11 C 373.97 487.26 376.89 485.08 376.84 482.02 C 377.60 471.36 377.03 460.64 377.21 449.96 C 377.44 446.81 375.76 442.60 372.06 442.70 C 360.71 442.53 349.36 442.70 338.01 442.62 C 336.12 442.73 334.10 442.45 332.33 443.26 M 446.01 542.01 C 445.99 578.25 445.93 614.49 446.05 650.73 C 453.35 650.78 460.65 650.87 467.95 650.82 C 468.07 614.56 468.01 578.29 467.98 542.02 C 460.66 541.96 453.33 541.97 446.01 542.01 M 482.24 542.01 C 482.34 548.98 482.45 555.95 482.27 562.92 C 494.32 563.05 506.37 562.97 518.43 562.97 C 518.32 592.22 518.37 621.47 518.35 650.72 C 525.85 650.84 533.35 650.71 540.85 650.77 C 540.62 621.49 540.89 592.21 540.69 562.94 C 552.70 562.90 564.70 563.07 576.71 562.90 C 576.78 555.94 576.71 548.98 576.77 542.02 C 545.26 541.97 513.75 542.00 482.24 542.01 Z" />
</g>
<g id="#025eabff">
<path fill="#025eab" opacity="1.00" d=" M 223.38 356.45 C 236.37 355.52 249.50 355.48 262.38 357.63 C 265.15 358.17 268.16 358.68 270.27 360.73 C 273.19 363.31 274.23 367.59 273.34 371.32 C 272.25 374.87 268.68 376.72 266.74 379.73 C 260.58 389.67 258.43 401.90 260.59 413.37 C 262.13 425.05 267.91 436.41 277.46 443.51 C 280.13 445.59 283.58 446.58 285.92 449.08 C 288.08 451.77 286.94 455.34 286.51 458.42 C 285.01 466.65 288.04 474.90 291.97 482.02 C 295.13 487.93 300.15 492.66 305.80 496.17 C 310.54 499.08 315.98 500.53 321.39 501.64 C 323.32 502.16 325.60 502.36 326.94 504.04 C 329.37 506.95 330.92 510.65 334.15 512.83 C 343.53 519.54 355.81 521.37 366.98 519.10 C 370.85 518.35 374.73 516.03 378.74 517.34 C 383.10 518.76 385.66 523.53 385.15 527.98 C 384.30 549.28 378.19 570.31 368.02 589.02 C 357.68 606.92 344.12 622.98 327.92 635.86 C 313.05 647.83 296.04 657.39 277.66 662.73 C 255.18 669.43 231.16 670.88 208.02 667.06 C 180.60 662.15 154.44 649.99 133.43 631.64 C 115.00 615.53 101.08 594.57 92.10 571.87 C 80.19 542.20 77.97 508.96 84.71 477.78 C 96.19 426.58 134.90 382.00 184.65 364.79 C 197.09 360.15 210.18 357.61 223.38 356.45 M 200.71 375.55 C 193.49 377.75 186.38 380.30 179.43 383.24 C 171.86 386.23 164.91 390.55 158.18 395.09 C 131.64 412.21 111.45 438.82 101.68 468.81 C 87.87 513.83 97.01 565.60 126.56 602.46 C 137.99 617.20 153.26 628.61 169.83 637.00 C 180.67 641.87 192.21 645.19 204.00 646.71 C 215.05 648.62 226.27 647.27 237.32 646.18 C 248.57 644.26 259.71 641.50 270.31 637.22 C 284.02 631.47 297.03 623.94 308.43 614.37 C 313.90 609.92 319.30 605.33 323.91 599.97 C 328.05 595.09 332.47 590.43 336.15 585.18 C 346.68 570.18 355.50 553.71 360.04 535.87 C 357.16 535.51 354.26 535.34 351.37 535.34 C 349.65 538.74 348.43 542.36 346.99 545.89 C 340.74 560.19 333.64 574.42 322.98 586.00 C 321.76 587.24 320.52 588.55 318.94 589.34 C 316.98 589.71 315.70 587.73 315.68 586.01 C 315.02 582.07 317.74 578.83 319.90 575.89 C 329.83 563.03 337.36 548.44 342.76 533.15 C 337.45 530.69 332.06 528.24 327.56 524.44 C 324.52 522.17 322.23 519.08 319.27 516.75 C 317.00 515.62 314.39 515.54 311.96 514.95 C 306.69 513.99 301.84 511.54 297.42 508.61 C 284.11 499.60 274.53 484.97 272.47 468.95 C 272.03 465.41 272.78 461.74 271.85 458.27 C 269.67 455.72 266.66 454.05 264.45 451.52 C 254.26 439.49 247.78 423.92 248.33 407.99 C 247.78 397.70 250.79 387.52 255.67 378.54 C 256.65 376.80 257.30 374.90 257.49 372.91 C 249.37 371.71 241.24 370.00 232.99 370.48 C 222.13 371.33 211.27 372.78 200.71 375.55 Z" />
<path fill="#025eab" opacity="1.00" d=" M 194.48 416.49 C 197.39 416.30 200.34 416.87 203.03 417.99 C 210.74 421.34 215.49 430.41 213.60 438.65 C 212.34 446.38 205.65 452.78 197.90 453.78 C 192.50 454.75 186.85 452.81 182.84 449.17 C 177.89 444.29 175.66 436.58 177.95 429.91 C 180.12 422.67 186.83 416.89 194.48 416.49 Z" />
<path fill="#025eab" opacity="1.00" d=" M 152.29 482.27 C 158.83 480.94 165.95 482.60 170.95 487.10 C 179.40 493.92 181.64 506.97 176.36 516.36 C 172.17 524.00 163.72 529.06 154.99 529.05 C 150.00 528.88 145.07 527.00 141.18 523.86 C 135.28 518.78 132.14 510.71 133.11 502.98 C 134.25 492.94 142.56 484.44 152.29 482.27 Z" />
<path fill="#025eab" opacity="1.00" d=" M 271.34 541.33 C 277.47 539.54 284.40 540.60 289.66 544.23 C 296.70 549.25 299.99 558.97 297.28 567.20 C 295.17 573.75 289.97 579.53 283.18 581.27 C 273.81 584.44 262.61 579.33 258.54 570.40 C 255.08 563.31 256.33 554.37 261.18 548.23 C 263.86 545.09 267.42 542.65 271.34 541.33 Z" />
<path fill="#025eab" opacity="1.00" d=" M 188.27 560.21 C 191.93 559.40 195.88 559.26 199.51 560.36 C 204.52 562.25 209.11 565.95 211.10 571.04 C 212.25 573.89 213.27 576.91 213.20 580.02 C 212.56 588.11 207.02 596.02 198.91 598.02 C 194.22 598.91 189.03 598.92 184.82 596.39 C 175.89 592.05 172.22 580.18 176.05 571.25 C 178.02 565.86 182.78 561.74 188.27 560.21 Z" />
<path fill="#025eab" opacity="1.00" d=" M 297.28 599.01 C 299.36 597.80 302.89 598.33 303.38 601.06 C 303.34 603.77 301.17 605.75 299.20 607.30 C 278.20 622.72 252.35 633.11 225.96 631.30 C 221.84 631.36 219.61 625.20 223.14 622.90 C 228.03 622.11 233.03 622.58 237.95 621.91 C 252.90 621.65 267.21 616.10 280.21 609.09 C 286.11 606.08 291.29 601.83 297.28 599.01 Z" />
</g>
<g id="#0caff9ff">
<path fill="#0caff9" opacity="1.00" d=" M 333.18 363.22 C 337.76 362.49 342.44 362.78 347.06 362.82 C 349.01 362.83 351.60 363.95 351.59 366.23 C 351.72 371.91 351.89 377.64 351.46 383.31 C 351.25 383.64 350.82 384.31 350.61 384.65 C 346.17 385.80 341.51 385.06 336.98 385.27 C 334.76 385.03 331.81 385.64 330.30 383.59 C 329.42 378.44 329.87 373.15 329.87 367.94 C 329.71 365.81 330.78 363.38 333.18 363.22 Z" />
</g>
<g id="#0dc1fbff">
<path fill="#0dc1fb" opacity="1.00" d=" M 200.71 375.55 C 211.27 372.78 222.13 371.33 232.99 370.48 C 241.24 370.00 249.37 371.71 257.49 372.91 C 257.30 374.90 256.65 376.80 255.67 378.54 C 250.79 387.52 247.78 397.70 248.33 407.99 C 247.78 423.92 254.26 439.49 264.45 451.52 C 266.66 454.05 269.67 455.72 271.85 458.27 C 272.78 461.74 272.03 465.41 272.47 468.95 C 274.53 484.97 284.11 499.60 297.42 508.61 C 301.84 511.54 306.69 513.99 311.96 514.95 C 314.39 515.54 317.00 515.62 319.27 516.75 C 322.23 519.08 324.52 522.17 327.56 524.44 C 332.06 528.24 337.45 530.69 342.76 533.15 C 337.36 548.44 329.83 563.03 319.90 575.89 C 317.74 578.83 315.02 582.07 315.68 586.01 C 315.70 587.73 316.98 589.71 318.94 589.34 C 320.52 588.55 321.76 587.24 322.98 586.00 C 333.64 574.42 340.74 560.19 346.99 545.89 C 348.43 542.36 349.65 538.74 351.37 535.34 C 354.26 535.34 357.16 535.51 360.04 535.87 C 355.50 553.71 346.68 570.18 336.15 585.18 C 332.47 590.43 328.05 595.09 323.91 599.97 C 319.30 605.33 313.90 609.92 308.43 614.37 C 297.03 623.94 284.02 631.47 270.31 637.22 C 259.71 641.50 248.57 644.26 237.32 646.18 C 226.27 647.27 215.05 648.62 204.00 646.71 C 192.21 645.19 180.67 641.87 169.83 637.00 C 153.26 628.61 137.99 617.20 126.56 602.46 C 97.01 565.60 87.87 513.83 101.68 468.81 C 111.45 438.82 131.64 412.21 158.18 395.09 C 164.91 390.55 171.86 386.23 179.43 383.24 C 186.38 380.30 193.49 377.75 200.71 375.55 M 194.48 416.49 C 186.83 416.89 180.12 422.67 177.95 429.91 C 175.66 436.58 177.89 444.29 182.84 449.17 C 186.85 452.81 192.50 454.75 197.90 453.78 C 205.65 452.78 212.34 446.38 213.60 438.65 C 215.49 430.41 210.74 421.34 203.03 417.99 C 200.34 416.87 197.39 416.30 194.48 416.49 M 235.30 476.31 C 231.10 478.02 227.52 482.26 227.86 487.00 C 227.58 491.48 230.70 495.52 234.57 497.45 C 239.33 499.26 245.59 497.78 248.04 493.02 C 251.05 488.36 249.91 481.79 245.71 478.24 C 242.93 475.73 238.79 475.23 235.30 476.31 M 152.29 482.27 C 142.56 484.44 134.25 492.94 133.11 502.98 C 132.14 510.71 135.28 518.78 141.18 523.86 C 145.07 527.00 150.00 528.88 154.99 529.05 C 163.72 529.06 172.17 524.00 176.36 516.36 C 181.64 506.97 179.40 493.92 170.95 487.10 C 165.95 482.60 158.83 480.94 152.29 482.27 M 271.34 541.33 C 267.42 542.65 263.86 545.09 261.18 548.23 C 256.33 554.37 255.08 563.31 258.54 570.40 C 262.61 579.33 273.81 584.44 283.18 581.27 C 289.97 579.53 295.17 573.75 297.28 567.20 C 299.99 558.97 296.70 549.25 289.66 544.23 C 284.40 540.60 277.47 539.54 271.34 541.33 M 188.27 560.21 C 182.78 561.74 178.02 565.86 176.05 571.25 C 172.22 580.18 175.89 592.05 184.82 596.39 C 189.03 598.92 194.22 598.91 198.91 598.02 C 207.02 596.02 212.56 588.11 213.20 580.02 C 213.27 576.91 212.25 573.89 211.10 571.04 C 209.11 565.95 204.52 562.25 199.51 560.36 C 195.88 559.26 191.93 559.40 188.27 560.21 M 297.28 599.01 C 291.29 601.83 286.11 606.08 280.21 609.09 C 267.21 616.10 252.90 621.65 237.95 621.91 C 233.03 622.58 228.03 622.11 223.14 622.90 C 219.61 625.20 221.84 631.36 225.96 631.30 C 252.35 633.11 278.20 622.72 299.20 607.30 C 301.17 605.75 303.34 603.77 303.38 601.06 C 302.89 598.33 299.36 597.80 297.28 599.01 Z" />
</g>
<g id="#0ab3f8ff">
<path fill="#0ab3f8" opacity="1.00" d=" M 297.19 393.14 C 299.74 392.54 302.40 392.82 305.00 392.78 C 310.02 392.89 315.04 392.64 320.06 392.83 C 322.16 392.83 324.18 393.89 325.35 395.65 C 325.88 397.71 325.65 399.89 325.70 402.01 C 325.55 408.65 325.85 415.29 325.69 421.94 C 325.92 424.48 323.54 426.50 321.07 426.19 C 313.70 426.21 306.32 426.30 298.95 426.10 C 296.53 426.21 294.52 424.23 294.19 421.91 C 293.58 418.30 293.89 414.64 293.86 411.01 C 293.98 406.36 293.54 401.68 294.21 397.06 C 294.32 395.32 295.54 393.69 297.19 393.14 Z" />
<path fill="#0ab3f8" opacity="1.00" d=" M 362.13 406.07 C 366.75 405.64 371.41 405.77 376.05 405.87 C 377.91 406.09 380.22 405.88 381.54 407.51 C 382.55 411.24 382.12 415.17 382.23 418.99 C 382.14 421.78 382.44 424.70 381.43 427.36 C 380.08 429.51 377.19 429.07 375.02 429.25 C 370.18 429.15 365.26 429.53 360.48 428.63 C 360.20 428.35 359.64 427.81 359.36 427.54 C 358.35 421.47 358.73 415.22 358.97 409.11 C 358.82 407.23 360.32 405.94 362.13 406.07 Z" />
<path fill="#0ab3f8" opacity="1.00" d=" M 332.33 443.26 C 334.10 442.45 336.12 442.73 338.01 442.62 C 349.36 442.70 360.71 442.53 372.06 442.70 C 375.76 442.60 377.44 446.81 377.21 449.96 C 377.03 460.64 377.60 471.36 376.84 482.02 C 376.89 485.08 373.97 487.26 371.05 487.11 C 360.04 487.38 349.01 487.10 338.00 487.23 C 335.49 487.16 332.45 487.43 330.68 485.27 C 329.11 483.60 329.39 481.13 329.26 479.03 C 329.26 469.00 329.27 458.97 329.35 448.94 C 329.21 446.66 330.14 444.24 332.33 443.26 Z" />
</g>
<g id="#033e7eff">
<path fill="#033e7e" opacity="1.00" d=" M 636.46 394.74 C 640.65 394.13 645.28 394.52 648.74 397.21 C 654.14 401.33 655.40 409.80 651.29 415.26 C 646.12 422.35 634.56 422.68 628.68 416.30 C 626.09 413.57 625.30 409.64 625.59 405.99 C 625.85 400.27 630.86 395.39 636.46 394.74 Z" />
<path fill="#033e7e" opacity="1.00" d=" M 470.61 402.58 C 483.91 397.09 498.95 396.73 512.84 400.03 C 528.56 403.72 542.47 414.85 549.06 429.66 C 542.25 432.77 535.45 435.92 528.80 439.39 C 526.01 435.47 523.71 431.13 520.11 427.86 C 513.49 421.46 503.97 418.82 494.92 419.21 C 487.17 419.75 479.16 421.92 473.28 427.23 C 468.19 431.50 464.89 437.47 462.75 443.67 C 460.54 450.22 460.72 457.26 461.09 464.07 C 462.40 474.19 467.43 484.23 476.00 490.07 C 482.09 494.44 489.65 496.32 497.06 496.67 C 504.00 496.45 510.92 494.45 516.81 490.73 C 521.50 487.69 525.00 483.22 527.99 478.57 C 535.04 481.73 541.93 485.22 548.91 488.55 C 546.71 493.47 543.45 497.88 539.77 501.78 C 531.48 509.41 521.21 515.17 510.04 517.16 C 498.41 519.57 486.13 518.88 474.86 515.13 C 466.96 512.52 459.94 507.77 453.84 502.20 C 433.48 482.13 429.92 447.57 445.69 423.74 C 451.51 414.30 460.36 406.81 470.61 402.58 Z" />
<path fill="#033e7e" opacity="1.00" d=" M 684.39 432.41 C 699.16 426.65 716.05 428.16 730.34 434.62 C 734.00 436.21 737.06 438.83 740.08 441.37 C 736.42 446.31 732.37 450.95 728.59 455.80 C 722.72 451.28 716.01 447.58 708.59 446.48 C 703.17 445.69 696.94 445.78 692.61 449.62 C 690.25 451.45 689.36 455.19 691.26 457.65 C 693.78 460.63 697.74 461.68 701.36 462.65 C 708.81 464.44 716.37 465.85 723.60 468.43 C 728.83 470.32 734.30 472.70 737.60 477.40 C 742.64 484.43 742.90 493.99 739.84 501.87 C 735.77 510.70 726.31 515.72 717.05 517.22 C 698.82 520.74 678.39 517.12 664.17 504.67 L 664.09 504.03 C 667.13 498.74 671.43 494.33 674.99 489.40 C 681.39 493.95 688.30 498.21 696.11 499.77 C 700.98 500.63 706.04 501.05 710.93 500.05 C 714.33 499.35 717.56 497.03 718.77 493.69 C 719.25 491.38 718.50 488.83 716.60 487.37 C 712.91 484.40 708.14 483.38 703.61 482.45 C 698.15 481.42 692.76 480.02 687.40 478.56 C 682.15 477.08 676.99 474.79 673.02 470.97 C 669.51 467.85 667.98 463.13 667.44 458.59 C 666.99 453.20 667.93 447.56 670.84 442.92 C 673.84 437.86 679.07 434.61 684.39 432.41 Z" />
<path fill="#033e7e" opacity="1.00" d=" M 802.60 429.46 C 809.63 428.18 816.87 429.26 823.65 431.30 C 838.88 436.69 849.61 452.04 850.74 467.99 C 851.84 479.91 849.79 492.72 842.43 502.46 C 833.75 514.73 817.60 520.18 803.03 518.14 C 794.25 517.38 786.16 512.92 780.02 506.74 C 779.94 522.90 780.06 539.07 779.99 555.24 C 772.01 555.33 764.03 555.31 756.05 555.19 C 755.93 513.77 755.95 472.34 756.02 430.91 C 763.32 430.99 770.62 430.98 777.92 430.95 C 778.07 434.63 778.10 438.31 778.03 441.99 C 784.19 434.86 793.19 430.21 802.60 429.46 M 798.36 449.43 C 793.02 450.53 788.28 453.73 784.86 457.92 C 781.68 461.48 780.55 466.33 779.94 470.94 C 778.99 478.98 782.27 487.34 788.45 492.58 C 792.94 496.54 799.15 498.06 805.04 497.73 C 810.40 497.57 815.97 495.70 819.58 491.57 C 829.23 481.66 828.36 463.99 818.45 454.58 C 813.05 449.83 805.36 448.15 798.36 449.43 Z" />
<path fill="#033e7e" opacity="1.00" d=" M 591.66 432.67 C 598.50 429.36 606.33 429.80 613.71 430.20 C 613.79 437.11 613.84 444.02 613.71 450.93 C 606.49 449.84 598.57 450.04 592.32 454.29 C 587.27 457.35 584.16 463.05 584.04 468.93 C 583.85 484.61 584.12 500.29 583.95 515.98 C 576.31 516.06 568.67 516.05 561.03 515.97 C 560.89 487.65 561.02 459.33 560.97 431.00 C 567.59 430.99 574.21 430.96 580.83 431.00 C 581.35 434.04 581.89 437.07 582.36 440.12 C 585.03 437.16 587.93 434.26 591.66 432.67 Z" />
<path fill="#033e7e" opacity="1.00" d=" M 627.81 433.00 C 627.92 432.50 628.15 431.51 628.26 431.02 C 635.87 430.86 643.50 430.96 651.12 430.95 C 651.25 459.30 651.20 487.65 651.12 516.00 C 643.34 515.95 635.54 516.26 627.77 515.82 C 627.85 488.21 627.66 460.60 627.81 433.00 Z" />
<path fill="#033e7e" opacity="1.00" d=" M 856.03 431.02 C 864.39 430.93 872.76 431.04 881.13 430.92 C 888.54 449.84 896.06 468.74 903.30 487.74 C 904.64 485.13 905.64 482.38 906.57 479.61 C 912.55 463.45 918.66 447.32 924.23 431.01 C 932.40 430.93 940.58 430.98 948.77 431.00 C 944.91 441.76 940.13 452.16 935.84 462.75 C 930.21 476.47 924.37 490.10 918.80 503.84 C 915.53 512.49 912.12 521.07 908.53 529.58 C 906.62 534.06 904.02 538.21 901.12 542.11 C 895.50 549.68 886.46 554.73 876.99 555.14 C 872.36 555.38 867.73 555.39 863.10 555.18 C 863.13 548.76 863.22 542.35 863.12 535.93 C 869.44 535.78 876.38 535.65 881.66 531.68 C 886.43 527.55 888.45 521.32 890.57 515.59 C 891.58 513.50 890.32 511.35 889.60 509.41 C 878.33 483.31 867.25 457.14 856.03 431.02 Z" />
<path fill="#033e7e" opacity="1.00" d=" M 446.01 542.01 C 453.33 541.97 460.66 541.96 467.98 542.02 C 468.01 578.29 468.07 614.56 467.95 650.82 C 460.65 650.87 453.35 650.78 446.05 650.73 C 445.93 614.49 445.99 578.25 446.01 542.01 Z" />
<path fill="#033e7e" opacity="1.00" d=" M 482.24 542.01 C 513.75 542.00 545.26 541.97 576.77 542.02 C 576.71 548.98 576.78 555.94 576.71 562.90 C 564.70 563.07 552.70 562.90 540.69 562.94 C 540.89 592.21 540.62 621.49 540.85 650.77 C 533.35 650.71 525.85 650.84 518.35 650.72 C 518.37 621.47 518.32 592.22 518.43 562.97 C 506.37 562.97 494.32 563.05 482.27 562.92 C 482.45 555.95 482.34 548.98 482.24 542.01 Z" />
</g>
<g id="#fdfaf2ff">
<path fill="#fdfaf2" opacity="1.00" d=" M 798.36 449.43 C 805.36 448.15 813.05 449.83 818.45 454.58 C 828.36 463.99 829.23 481.66 819.58 491.57 C 815.97 495.70 810.40 497.57 805.04 497.73 C 799.15 498.06 792.94 496.54 788.45 492.58 C 782.27 487.34 778.99 478.98 779.94 470.94 C 780.55 466.33 781.68 461.48 784.86 457.92 C 788.28 453.73 793.02 450.53 798.36 449.43 Z" />
</g>
<g id="#0364acff">
<path fill="#0364ac" opacity="1.00" d=" M 235.30 476.31 C 238.79 475.23 242.93 475.73 245.71 478.24 C 249.91 481.79 251.05 488.36 248.04 493.02 C 245.59 497.78 239.33 499.26 234.57 497.45 C 230.70 495.52 227.58 491.48 227.86 487.00 C 227.52 482.26 231.10 478.02 235.30 476.31 Z" />
</g>
</svg>
