<?xml version="1.0" encoding="UTF-8" ?>
<!DOCTYPE svg PUBLIC "-//W3C//DTD SVG 1.1//EN" "http://www.w3.org/Graphics/SVG/1.1/DTD/svg11.dtd">
<svg width="1024pt" height="1024pt" viewBox="0 0 1024 1024" version="1.1" xmlns="http://www.w3.org/2000/svg">
<g id="#fefbf5ff">
</g>
<g id="#015fadff">
<path fill="#015fad" opacity="1.00" d=" M 474.42 196.55 C 481.59 195.89 488.80 195.76 496.00 196.08 C 502.43 195.95 508.83 196.70 515.16 197.82 C 517.44 198.26 519.83 198.79 521.69 200.29 C 525.21 202.89 526.47 207.94 525.04 212.00 C 524.33 214.11 522.51 215.51 520.99 217.02 C 517.57 220.01 516.22 224.52 514.58 228.60 C 510.60 239.18 511.38 250.90 514.39 261.61 C 517.28 271.68 524.04 280.75 533.28 285.82 C 535.45 287.15 538.20 288.39 538.90 291.10 C 539.56 294.06 538.56 297.05 538.28 300.00 C 537.29 306.51 539.70 312.86 542.22 318.74 C 546.49 328.28 554.73 335.94 564.60 339.39 C 568.46 340.90 572.64 341.21 576.58 342.47 C 579.17 343.40 580.28 346.15 581.80 348.22 C 584.59 352.55 589.28 355.16 593.92 357.09 C 602.68 360.41 612.56 361.16 621.59 358.44 C 623.70 357.87 625.79 357.10 628.00 357.00 C 631.91 356.74 635.30 359.84 636.61 363.33 C 637.41 366.50 637.07 369.83 636.92 373.07 C 635.18 391.10 630.21 408.85 622.11 425.05 C 605.13 456.84 577.49 482.97 544.41 497.42 C 525.36 505.38 504.66 509.45 484.00 509.06 C 463.09 509.23 442.37 504.13 423.29 495.77 C 402.22 486.43 383.26 472.21 368.73 454.29 C 341.63 421.02 328.76 376.52 334.13 333.93 C 335.86 317.22 340.57 300.86 347.86 285.74 C 361.74 256.00 385.37 231.09 413.84 214.90 C 432.51 204.77 453.23 198.32 474.42 196.55 M 476.92 211.32 C 458.90 212.77 441.48 218.45 425.15 226.01 C 414.08 231.88 403.72 239.06 394.14 247.12 C 383.19 257.02 373.54 268.42 366.10 281.20 C 353.69 301.47 347.80 325.30 347.36 348.94 C 347.15 373.31 352.45 397.82 363.59 419.55 C 372.83 436.96 385.34 452.91 401.36 464.57 C 409.80 470.41 418.50 476.13 428.21 479.65 C 444.32 485.87 461.87 489.02 479.11 487.15 C 505.45 485.45 531.14 475.88 552.55 460.53 C 579.83 441.10 600.43 412.63 610.82 380.83 C 611.36 379.11 611.73 377.35 612.10 375.60 C 609.11 375.34 606.11 375.20 603.12 375.08 C 596.56 392.62 588.60 410.01 576.41 424.41 C 574.79 426.25 573.18 428.23 570.96 429.35 C 568.92 429.73 567.66 427.83 567.69 426.01 C 566.93 421.79 570.04 418.46 572.32 415.33 C 582.10 402.64 589.39 388.18 594.83 373.15 C 587.69 370.16 580.71 366.34 575.36 360.65 C 573.83 359.17 572.50 357.40 570.62 356.37 C 567.15 355.37 563.50 355.14 560.10 353.90 C 550.83 350.87 543.13 344.42 536.86 337.11 C 530.44 329.58 526.63 320.16 524.66 310.54 C 523.96 306.74 524.59 302.86 524.12 299.05 C 523.93 297.66 522.57 297.03 521.62 296.26 C 517.04 293.24 514.03 288.51 511.01 284.05 C 503.40 272.99 499.74 259.39 500.33 246.01 C 499.92 239.38 501.88 232.95 503.89 226.72 C 505.38 222.25 508.19 218.37 509.66 213.89 C 505.23 211.09 499.86 211.78 494.92 210.92 C 488.94 210.06 482.87 210.44 476.92 211.32 Z" />
<path fill="#015fad" opacity="1.00" d=" M 446.48 256.46 C 449.65 256.19 452.83 256.98 455.70 258.29 C 463.33 261.93 467.54 271.27 465.45 279.43 C 463.33 290.07 450.44 297.24 440.42 292.60 C 432.74 289.75 428.15 281.11 429.26 273.14 C 430.33 264.47 437.63 256.98 446.48 256.46 Z" />
<path fill="#015fad" opacity="1.00" d=" M 487.30 316.31 C 490.81 315.35 494.89 315.79 497.71 318.25 C 502.67 322.14 503.05 330.22 498.77 334.76 C 495.78 338.12 490.69 338.91 486.57 337.47 C 482.69 335.56 479.59 331.47 479.91 326.99 C 479.70 322.32 483.03 317.94 487.30 316.31 Z" />
<path fill="#015fad" opacity="1.00" d=" M 404.27 322.28 C 411.74 320.75 419.87 323.28 424.94 329.03 C 432.26 336.46 433.22 348.91 427.63 357.62 C 423.65 363.61 417.15 368.02 409.92 368.81 C 402.02 370.00 393.76 366.17 389.35 359.55 C 384.36 352.65 383.39 342.96 387.38 335.37 C 390.89 328.95 397.06 323.88 404.27 322.28 Z" />
<path fill="#015fad" opacity="1.00" d=" M 523.35 381.32 C 529.00 379.78 535.41 380.28 540.43 383.49 C 548.77 388.42 552.39 399.72 548.81 408.66 C 545.60 417.38 536.15 423.10 526.94 422.09 C 517.85 420.84 509.55 413.37 508.67 404.01 C 507.49 394.25 513.86 384.13 523.35 381.32 Z" />
<path fill="#015fad" opacity="1.00" d=" M 440.27 400.23 C 446.82 398.45 454.12 400.27 458.96 405.05 C 465.64 411.22 466.84 422.32 461.92 429.91 C 459.19 433.60 455.45 436.88 450.90 438.01 C 445.97 438.89 440.46 438.87 436.20 435.90 C 427.54 431.15 424.11 419.34 428.38 410.55 C 430.42 405.44 435.14 401.87 440.27 400.23 Z" />
<path fill="#015fad" opacity="1.00" d=" M 551.29 438.25 C 553.65 437.61 556.26 440.50 555.04 442.78 C 553.34 446.69 549.16 448.54 545.95 451.01 C 526.79 463.57 504.21 472.33 480.99 471.40 C 478.42 471.43 475.62 470.94 473.89 468.85 C 473.25 466.88 473.08 464.11 475.16 462.92 C 477.74 462.35 480.40 462.59 483.03 462.52 C 493.09 462.04 503.24 461.03 512.79 457.64 C 520.76 455.25 528.14 451.32 535.41 447.33 C 540.73 444.37 545.49 440.26 551.29 438.25 Z" />
</g>
<g id="#09b3feff">
<path fill="#09b3fe" opacity="1.00" d=" M 585.16 203.28 C 590.08 202.95 595.04 203.15 599.97 203.22 C 602.12 202.95 603.93 204.95 603.69 207.06 C 603.67 212.46 604.03 217.91 603.41 223.28 C 603.19 223.61 602.76 224.26 602.55 224.59 C 598.12 225.68 593.49 225.08 588.98 225.19 C 586.75 225.00 584.03 225.41 582.35 223.59 C 581.58 220.45 581.94 217.19 581.85 214.00 C 581.91 211.09 581.60 208.13 582.28 205.27 C 583.00 204.37 583.92 203.37 585.16 203.28 Z" />
<path fill="#09b3fe" opacity="1.00" d=" M 549.22 233.32 C 556.13 232.89 563.08 233.31 570.01 233.10 C 572.16 233.25 574.86 232.69 576.43 234.57 C 578.18 236.22 577.70 238.83 577.82 240.99 C 577.64 247.97 577.87 254.96 577.71 261.95 C 577.81 263.47 576.91 264.85 575.66 265.64 C 572.84 266.44 569.87 266.07 567.00 266.04 C 561.35 265.75 555.68 266.45 550.05 265.78 C 547.67 265.74 546.02 263.26 546.13 261.03 C 545.99 254.35 546.24 247.66 545.91 240.98 C 545.80 238.22 546.02 234.21 549.22 233.32 Z" />
<path fill="#09b3fe" opacity="1.00" d=" M 614.12 246.15 C 619.40 245.75 624.72 245.75 630.02 245.96 C 631.86 245.84 633.85 247.12 633.90 249.11 C 634.29 254.39 633.77 259.70 633.85 264.99 C 634.19 267.23 632.15 269.08 630.00 269.02 C 625.32 269.34 620.65 268.71 615.97 268.87 C 614.25 268.86 611.53 268.99 611.27 266.71 C 610.91 260.87 611.14 255.00 611.21 249.15 C 610.98 247.43 612.38 245.94 614.12 246.15 Z" />
<path fill="#09b3fe" opacity="1.00" d=" M 584.34 283.31 C 586.08 282.46 588.11 282.77 590.00 282.67 C 601.01 282.80 612.02 282.58 623.03 282.73 C 625.99 282.47 629.13 284.82 628.84 287.97 C 629.00 298.32 628.72 308.67 629.05 319.02 C 629.16 321.81 628.68 325.49 625.68 326.63 C 622.84 327.34 619.88 327.13 616.99 327.18 C 606.97 327.03 596.94 327.30 586.93 327.05 C 584.64 327.11 582.43 325.72 581.68 323.54 C 581.13 321.74 581.25 319.84 581.21 317.99 C 581.31 308.30 581.18 298.62 581.28 288.93 C 581.12 286.64 582.25 284.35 584.34 283.31 Z" />
</g>
<g id="#0ebffdff">
<path fill="#0ebffd" opacity="1.00" d=" M 476.92 211.32 C 482.87 210.44 488.94 210.06 494.92 210.92 C 499.86 211.78 505.23 211.09 509.66 213.89 C 508.19 218.37 505.38 222.25 503.89 226.72 C 501.88 232.95 499.92 239.38 500.33 246.01 C 499.74 259.39 503.40 272.99 511.01 284.05 C 514.03 288.51 517.04 293.24 521.62 296.26 C 522.57 297.03 523.93 297.66 524.12 299.05 C 524.59 302.86 523.96 306.74 524.66 310.54 C 526.63 320.16 530.44 329.58 536.86 337.11 C 543.13 344.42 550.83 350.87 560.10 353.90 C 563.50 355.14 567.15 355.37 570.62 356.37 C 572.50 357.40 573.83 359.17 575.36 360.65 C 580.71 366.34 587.69 370.16 594.83 373.15 C 589.39 388.18 582.10 402.64 572.32 415.33 C 570.04 418.46 566.93 421.79 567.69 426.01 C 567.66 427.83 568.92 429.73 570.96 429.35 C 573.18 428.23 574.79 426.25 576.41 424.41 C 588.60 410.01 596.56 392.62 603.12 375.08 C 606.11 375.20 609.11 375.34 612.10 375.60 C 611.73 377.35 611.36 379.11 610.82 380.83 C 600.43 412.63 579.83 441.10 552.55 460.53 C 531.14 475.88 505.45 485.45 479.11 487.15 C 461.87 489.02 444.32 485.87 428.21 479.65 C 418.50 476.13 409.80 470.41 401.36 464.57 C 385.34 452.91 372.83 436.96 363.59 419.55 C 352.45 397.82 347.15 373.31 347.36 348.94 C 347.80 325.30 353.69 301.47 366.10 281.20 C 373.54 268.42 383.19 257.02 394.14 247.12 C 403.72 239.06 414.08 231.88 425.15 226.01 C 441.48 218.45 458.90 212.77 476.92 211.32 M 446.48 256.46 C 437.63 256.98 430.33 264.47 429.26 273.14 C 428.15 281.11 432.74 289.75 440.42 292.60 C 450.44 297.24 463.33 290.07 465.45 279.43 C 467.54 271.27 463.33 261.93 455.70 258.29 C 452.83 256.98 449.65 256.19 446.48 256.46 M 487.30 316.31 C 483.03 317.94 479.70 322.32 479.91 326.99 C 479.59 331.47 482.69 335.56 486.57 337.47 C 490.69 338.91 495.78 338.12 498.77 334.76 C 503.05 330.22 502.67 322.14 497.71 318.25 C 494.89 315.79 490.81 315.35 487.30 316.31 M 404.27 322.28 C 397.06 323.88 390.89 328.95 387.38 335.37 C 383.39 342.96 384.36 352.65 389.35 359.55 C 393.76 366.17 402.02 370.00 409.92 368.81 C 417.15 368.02 423.65 363.61 427.63 357.62 C 433.22 348.91 432.26 336.46 424.94 329.03 C 419.87 323.28 411.74 320.75 404.27 322.28 M 523.35 381.32 C 513.86 384.13 507.49 394.25 508.67 404.01 C 509.55 413.37 517.85 420.84 526.94 422.09 C 536.15 423.10 545.60 417.38 548.81 408.66 C 552.39 399.72 548.77 388.42 540.43 383.49 C 535.41 380.28 529.00 379.78 523.35 381.32 M 440.27 400.23 C 435.14 401.87 430.42 405.44 428.38 410.55 C 424.11 419.34 427.54 431.15 436.20 435.90 C 440.46 438.87 445.97 438.89 450.90 438.01 C 455.45 436.88 459.19 433.60 461.92 429.91 C 466.84 422.32 465.64 411.22 458.96 405.05 C 454.12 400.27 446.82 398.45 440.27 400.23 M 551.29 438.25 C 545.49 440.26 540.73 444.37 535.41 447.33 C 528.14 451.32 520.76 455.25 512.79 457.64 C 503.24 461.03 493.09 462.04 483.03 462.52 C 480.40 462.59 477.74 462.35 475.16 462.92 C 473.08 464.11 473.25 466.88 473.89 468.85 C 475.62 470.94 478.42 471.43 480.99 471.40 C 504.21 472.33 526.79 463.57 545.95 451.01 C 549.16 448.54 553.34 446.69 555.04 442.78 C 556.26 440.50 553.65 437.61 551.29 438.25 Z" />
</g>
<g id="#013d7cff">
<path fill="#013d7c" opacity="1.00" d=" M 352.33 543.39 C 357.03 542.34 362.23 542.81 366.20 545.75 C 371.30 549.19 373.47 556.35 371.02 562.03 C 368.87 568.07 362.18 571.62 355.96 571.08 C 348.51 571.32 341.25 564.60 341.92 556.97 C 341.71 550.73 346.45 545.06 352.33 543.39 Z" />
<path fill="#013d7c" opacity="1.00" d=" M 175.33 559.27 C 189.47 549.25 207.96 547.03 224.68 550.33 C 241.63 553.41 257.06 564.78 264.09 580.64 C 257.05 583.54 250.45 587.44 243.36 590.20 C 239.54 582.57 233.37 575.85 225.35 572.63 C 216.74 569.46 207.09 569.51 198.40 572.39 C 189.16 575.61 181.64 583.32 178.51 592.58 C 175.78 599.70 175.34 607.49 176.14 615.03 C 177.13 622.62 179.93 630.17 185.17 635.87 C 193.62 645.40 207.48 649.59 219.83 646.72 C 226.84 645.20 233.50 641.59 238.18 636.11 C 239.93 634.07 241.49 631.87 243.08 629.71 C 250.13 633.02 257.28 636.15 264.16 639.83 C 260.78 645.12 257.55 650.68 252.63 654.72 C 244.28 661.69 234.17 666.74 223.39 668.48 C 212.24 670.33 200.59 669.76 189.86 666.11 C 175.87 661.31 163.87 650.79 157.63 637.34 C 148.28 618.95 148.62 595.89 158.81 577.91 C 163.01 570.71 168.32 563.94 175.33 559.27 Z" />
<path fill="#013d7c" opacity="1.00" d=" M 739.01 579.00 C 746.34 578.95 753.67 578.97 761.00 578.98 C 761.02 615.25 761.04 651.53 760.98 687.80 C 753.68 687.69 746.39 687.76 739.10 687.72 C 738.85 651.49 739.03 615.24 739.01 579.00 Z" />
<path fill="#013d7c" opacity="1.00" d=" M 775.25 579.00 C 806.76 578.95 838.27 578.95 869.78 579.00 C 869.73 585.97 869.78 592.95 869.77 599.92 C 857.76 600.01 845.75 599.88 833.74 599.88 C 834.03 629.15 833.79 658.43 833.82 687.70 C 826.34 687.74 818.87 687.86 811.39 687.69 C 811.34 658.45 811.26 629.20 811.52 599.95 C 799.42 599.82 787.32 600.04 775.23 599.89 C 775.29 592.93 775.42 585.96 775.25 579.00 Z" />
<path fill="#013d7c" opacity="1.00" d=" M 403.85 582.68 C 412.28 579.85 421.39 579.16 430.17 580.57 C 436.72 581.41 443.28 583.41 448.70 587.30 C 452.25 589.98 455.07 593.68 456.62 597.86 C 451.61 601.15 446.67 604.75 441.06 606.95 C 439.40 606.58 438.59 604.67 437.33 603.64 C 431.50 597.01 421.44 595.29 413.34 598.27 C 410.19 599.46 406.96 602.33 407.50 606.03 C 408.13 609.79 412.07 611.61 415.35 612.60 C 424.20 614.89 433.33 616.06 442.02 618.98 C 448.38 621.17 454.37 625.46 457.28 631.66 C 460.38 640.78 459.05 651.99 451.94 658.95 C 444.26 666.27 433.38 669.19 422.98 669.12 C 413.29 669.51 403.19 668.36 394.76 663.23 C 389.69 660.29 385.66 655.86 382.54 650.95 C 387.86 646.97 393.53 643.49 398.92 639.62 C 401.63 642.70 404.04 646.26 407.78 648.21 C 413.60 651.34 420.50 651.27 426.92 650.81 C 430.43 650.05 434.57 648.24 435.38 644.34 C 436.49 641.14 434.24 637.96 431.60 636.35 C 427.90 634.12 423.51 633.62 419.39 632.64 C 413.28 631.15 407.05 630.02 401.16 627.76 C 397.30 626.34 393.36 624.59 390.61 621.42 C 383.91 613.79 384.10 601.72 389.33 593.36 C 392.47 587.98 398.10 584.65 403.85 582.68 Z" />
<path fill="#013d7c" opacity="1.00" d=" M 502.14 586.19 C 514.58 577.97 531.40 577.96 544.56 584.49 C 555.61 590.21 563.20 601.47 565.40 613.61 C 567.27 624.20 566.62 635.40 562.41 645.38 C 558.26 654.93 550.29 662.93 540.42 666.47 C 533.07 669.47 524.92 669.55 517.16 668.64 C 509.33 667.60 502.30 663.39 496.79 657.88 C 497.16 672.25 496.95 686.62 496.99 701.00 C 489.00 700.98 481.00 701.05 473.01 700.99 C 472.81 661.34 472.86 621.70 473.02 582.05 C 480.31 582.01 487.61 581.86 494.91 582.14 C 495.07 585.84 495.07 589.54 495.08 593.24 C 497.25 590.72 499.27 587.96 502.14 586.19 M 515.38 600.50 C 508.60 601.69 502.43 606.13 499.39 612.35 C 494.54 621.71 495.72 634.17 503.15 641.87 C 508.53 647.83 517.33 649.73 525.00 648.10 C 532.68 646.71 538.77 640.41 541.29 633.21 C 544.65 622.62 541.18 609.55 531.65 603.30 C 526.84 600.41 520.88 599.43 515.38 600.50 Z" />
<path fill="#013d7c" opacity="1.00" d=" M 311.35 583.31 C 318.04 580.57 325.54 579.97 332.65 581.19 C 332.65 588.10 332.37 595.01 332.40 601.93 C 330.46 601.88 328.53 601.69 326.61 601.47 C 321.42 600.85 315.99 601.87 311.46 604.49 C 306.38 607.72 303.16 613.45 302.42 619.36 C 301.99 622.89 302.12 626.45 302.11 630.00 C 302.12 642.36 302.17 654.73 302.11 667.09 C 294.06 667.09 286.00 667.11 277.94 667.03 C 277.85 638.71 277.87 610.39 277.95 582.07 C 285.28 581.96 292.61 582.00 299.94 582.17 C 300.20 585.24 300.45 588.33 300.72 591.41 C 303.93 588.31 307.12 584.99 311.35 583.31 Z" />
<path fill="#013d7c" opacity="1.00" d=" M 344.99 582.07 C 352.99 582.01 360.99 581.92 368.98 582.05 C 369.03 610.39 368.97 638.73 369.01 667.06 C 360.99 667.09 352.98 667.10 344.97 667.02 C 344.77 638.70 344.83 610.39 344.99 582.07 Z" />
<path fill="#013d7c" opacity="1.00" d=" M 570.87 582.13 C 579.27 581.85 587.67 582.08 596.07 581.97 C 603.74 600.92 610.95 620.06 618.42 639.08 C 620.21 635.18 621.48 631.08 623.03 627.09 C 628.35 612.04 634.19 597.19 639.28 582.06 C 647.47 581.92 655.67 582.01 663.87 582.02 C 651.33 613.59 637.47 644.62 625.36 676.37 C 621.50 686.18 615.84 695.97 606.68 701.68 C 598.18 706.97 587.76 706.65 578.14 706.18 C 578.39 699.77 578.26 693.35 578.18 686.93 C 584.24 686.85 590.81 686.68 596.02 683.16 C 600.16 680.32 602.11 675.46 603.93 670.98 C 604.73 668.71 605.86 666.48 606.06 664.06 C 600.63 650.60 594.50 637.43 589.06 623.97 C 583.00 610.02 576.88 596.10 570.87 582.13 Z" />
</g>
<g id="#fefaf4ff">
<path fill="#fefaf4" opacity="1.00" d=" M 515.38 600.50 C 520.88 599.43 526.84 600.41 531.65 603.30 C 541.18 609.55 544.65 622.62 541.29 633.21 C 538.77 640.41 532.68 646.71 525.00 648.10 C 517.33 649.73 508.53 647.83 503.15 641.87 C 495.72 634.17 494.54 621.71 499.39 612.35 C 502.43 606.13 508.60 601.69 515.38 600.50 Z" />
</g>
</svg>
