<?xml version="1.0" encoding="UTF-8" ?>
<!DOCTYPE svg PUBLIC "-//W3C//DTD SVG 1.1//EN" "http://www.w3.org/Graphics/SVG/1.1/DTD/svg11.dtd">
<svg width="1176pt" height="869pt" viewBox="0 0 1176 869" version="1.1" xmlns="http://www.w3.org/2000/svg">
<g id="#a3dee6ff">
<path fill="#a3dee6" opacity="1.00" d=" M 337.63 97.63 C 342.00 94.23 346.58 98.82 350.77 100.27 C 385.30 118.48 420.11 136.19 454.69 154.33 C 440.34 168.25 425.29 181.49 411.57 196.03 C 411.45 207.83 411.89 219.65 411.41 231.43 C 405.46 237.49 398.72 242.73 392.56 248.57 C 385.81 248.36 379.57 244.53 372.97 243.08 C 351.69 236.25 330.42 229.42 309.07 222.85 C 306.19 221.25 301.32 221.62 300.42 217.75 C 293.74 187.89 286.10 158.26 278.57 128.60 C 297.85 117.56 318.09 108.23 337.63 97.63 M 291.84 134.97 C 297.46 160.69 304.46 186.20 310.20 211.93 C 335.44 220.11 360.73 228.17 386.00 236.25 C 389.15 237.54 391.39 234.26 393.42 232.42 C 395.53 229.91 398.73 228.07 400.02 225.04 C 400.04 214.35 399.94 203.64 400.02 192.95 C 399.95 190.60 402.14 189.17 403.44 187.49 C 413.44 176.94 424.93 167.84 434.56 156.93 C 403.90 140.56 373.18 124.20 342.03 108.77 C 325.24 117.39 308.28 125.73 291.84 134.97 Z" />
</g>
<g id="#91dee8ff">
<path fill="#91dee8" opacity="1.00" d=" M 509.09 110.08 C 514.72 102.53 527.05 101.41 533.40 108.61 C 537.90 112.77 538.60 119.39 537.34 125.09 C 534.45 133.85 523.11 139.27 514.81 134.62 C 503.40 144.22 493.45 155.40 482.33 165.32 C 469.15 178.53 455.14 190.89 442.06 204.19 C 442.60 217.66 442.67 231.11 441.59 244.57 C 430.48 254.20 419.93 264.47 408.98 274.27 C 413.54 276.18 418.32 277.49 422.82 279.56 C 435.55 266.95 448.81 254.81 461.39 242.11 C 461.43 231.69 460.59 221.07 461.62 210.76 C 475.17 197.29 489.21 184.27 503.37 171.44 C 512.33 170.30 521.77 171.25 530.92 170.96 C 546.07 156.10 561.19 141.20 576.32 126.33 C 575.23 122.12 574.35 117.42 576.40 113.35 C 579.33 106.06 588.25 101.63 595.76 104.30 C 603.61 106.57 609.00 115.72 606.53 123.64 C 604.37 132.75 593.12 138.40 584.61 134.38 C 567.72 150.17 551.67 166.91 534.70 182.59 C 526.11 183.87 517.33 181.65 508.64 182.43 C 496.84 193.00 485.49 204.07 473.67 214.62 C 473.60 225.59 473.80 236.55 473.64 247.51 C 460.37 259.73 447.08 272.36 434.28 284.86 C 436.73 286.52 441.15 292.31 444.22 288.24 C 477.92 255.43 511.99 222.97 545.28 189.74 C 552.89 189.70 560.51 189.74 568.13 189.83 C 568.73 179.87 580.25 174.28 589.05 177.76 C 600.54 181.00 603.02 198.45 592.94 204.87 C 585.17 211.14 574.32 207.26 568.15 200.66 C 562.07 201.98 555.64 200.55 549.62 201.47 C 516.99 233.60 484.27 265.65 451.09 297.21 C 453.95 300.79 457.08 304.14 459.92 307.74 C 479.18 290.47 497.86 272.44 517.56 255.61 C 518.24 254.84 519.07 254.44 520.06 254.41 C 529.01 254.26 537.98 254.56 546.93 254.32 C 549.46 253.14 551.33 250.98 553.26 249.03 C 553.03 244.33 552.30 239.42 553.85 234.86 C 556.70 228.97 563.37 224.92 569.98 225.69 C 579.82 225.74 587.59 236.61 584.68 246.00 C 581.96 254.83 570.68 260.00 562.28 255.85 C 558.45 258.95 554.74 262.16 551.79 266.15 C 542.28 266.42 532.70 266.04 523.17 266.23 C 503.76 282.53 485.74 300.44 466.63 317.07 C 469.31 321.49 471.04 326.35 472.98 331.11 C 492.00 314.90 510.39 297.97 529.26 281.59 C 542.50 281.73 555.74 281.62 568.97 281.67 C 570.26 281.86 571.13 280.81 572.07 280.13 C 587.17 268.18 601.67 255.49 616.87 243.65 C 615.37 236.15 617.56 227.32 625.22 224.14 C 635.54 218.39 649.80 228.34 647.71 240.08 C 646.69 250.36 634.08 257.17 625.03 251.79 C 608.98 263.69 594.30 277.29 578.52 289.53 C 576.15 291.10 574.21 294.09 571.05 293.78 C 558.38 293.93 545.70 293.68 533.03 293.91 C 515.75 308.25 499.41 323.76 482.16 338.16 C 477.31 342.66 472.65 347.48 467.13 351.16 C 464.13 339.49 460.39 327.67 453.21 317.83 C 437.61 296.16 411.35 283.58 384.90 282.61 C 385.68 279.03 389.46 277.29 391.84 274.83 C 404.19 263.13 416.73 251.60 429.67 240.58 C 429.61 226.83 429.93 213.10 430.34 199.37 C 455.80 175.09 480.99 150.51 506.72 126.52 C 505.88 121.01 504.77 114.50 509.09 110.08 M 519.30 114.40 C 515.49 115.74 515.00 121.68 517.84 124.19 C 520.77 127.42 527.50 125.52 527.79 121.00 C 528.49 116.52 523.53 112.61 519.30 114.40 M 586.66 115.81 C 585.60 118.35 585.04 121.59 587.31 123.69 C 591.03 127.73 599.17 123.45 596.99 117.98 C 595.66 113.51 589.80 112.71 586.66 115.81 M 582.43 186.49 C 578.51 187.05 576.59 191.53 578.02 195.02 C 580.28 198.87 586.84 199.07 588.99 195.01 C 590.84 190.90 586.65 186.12 582.43 186.49 M 625.59 237.86 C 626.12 242.06 630.24 245.24 634.41 243.46 C 639.53 242.12 638.56 234.35 633.96 232.97 C 630.26 231.00 626.65 234.46 625.59 237.86 M 562.56 240.99 C 563.50 244.95 568.09 248.86 572.01 245.98 C 575.58 244.34 575.73 238.41 572.01 236.89 C 568.49 234.46 563.36 236.92 562.56 240.99 Z" />
</g>
<g id="#6ccae7ff">
<path fill="#6ccae7" opacity="1.00" d=" M 291.84 134.97 C 308.28 125.73 325.24 117.39 342.03 108.77 C 373.18 124.20 403.90 140.56 434.56 156.93 C 424.93 167.84 413.44 176.94 403.44 187.49 C 402.14 189.17 399.95 190.60 400.02 192.95 C 399.94 203.64 400.04 214.35 400.02 225.04 C 398.73 228.07 395.53 229.91 393.42 232.42 C 391.39 234.26 389.15 237.54 386.00 236.25 C 360.73 228.17 335.44 220.11 310.20 211.93 C 304.46 186.20 297.46 160.69 291.84 134.97 Z" />
</g>
<g id="#97cde1ff">
<path fill="#97cde1" opacity="1.00" d=" M 261.68 136.64 C 263.36 135.93 266.87 133.70 267.20 136.92 C 273.84 165.31 281.26 193.53 287.51 222.00 C 257.17 246.57 227.19 271.56 197.10 296.47 C 161.16 276.35 125.60 255.36 89.87 234.87 C 94.12 225.66 101.89 218.25 110.97 213.84 C 161.15 188.00 211.45 162.37 261.68 136.64 M 133.57 215.56 C 124.21 220.18 114.69 224.54 105.84 230.10 C 105.87 230.50 105.93 231.28 105.96 231.68 C 134.98 247.99 163.93 264.43 192.33 281.80 C 193.47 282.49 194.66 283.25 196.06 283.25 C 221.99 260.96 248.68 239.43 275.14 217.73 C 270.76 195.35 264.22 173.36 259.87 150.99 C 217.87 172.69 175.41 193.53 133.57 215.56 Z" />
</g>
<g id="#62b5e5ff">
<path fill="#62b5e5" opacity="1.00" d=" M 133.57 215.56 C 175.41 193.53 217.87 172.69 259.87 150.99 C 264.22 173.36 270.76 195.35 275.14 217.73 C 248.68 239.43 221.99 260.96 196.06 283.25 C 194.66 283.25 193.47 282.49 192.33 281.80 C 163.93 264.43 134.98 247.99 105.96 231.68 C 105.93 231.28 105.87 230.50 105.84 230.10 C 114.69 224.54 124.21 220.18 133.57 215.56 Z" />
</g>
<g id="#9ed5e3ff">
<path fill="#9ed5e3" opacity="1.00" d=" M 290.21 238.20 C 292.57 236.15 294.87 233.95 297.72 232.60 C 325.57 240.83 353.21 249.88 380.91 258.52 C 372.00 266.41 363.52 274.77 354.66 282.72 C 351.81 285.53 347.66 285.85 344.04 287.04 C 331.62 290.83 319.86 297.40 311.00 306.99 C 289.33 328.24 286.29 365.22 303.70 389.94 C 295.14 388.12 286.57 386.29 278.19 383.74 C 276.64 383.33 275.46 382.21 274.41 381.07 C 274.42 380.77 274.44 380.18 274.46 379.88 C 270.96 375.67 270.87 369.80 269.41 364.74 C 266.82 355.09 266.00 344.97 262.60 335.56 C 244.79 325.32 226.53 315.84 209.03 305.08 C 235.96 282.63 263.06 260.38 290.21 238.20 M 297.47 246.24 C 274.54 265.38 251.06 283.93 228.70 303.69 C 243.02 312.68 258.30 320.40 272.16 330.05 C 276.96 343.77 277.06 359.06 282.98 372.32 C 279.86 354.15 280.12 334.48 288.88 317.83 C 300.24 296.43 321.04 279.85 344.93 275.11 C 349.66 271.65 354.86 268.19 358.24 263.37 C 340.99 257.14 323.29 252.26 305.99 246.20 C 303.27 245.29 299.80 243.72 297.47 246.24 Z" />
</g>
<g id="#63bae5ff">
<path fill="#63bae5" opacity="1.00" d=" M 297.47 246.24 C 299.80 243.72 303.27 245.29 305.99 246.20 C 323.29 252.26 340.99 257.14 358.24 263.37 C 354.86 268.19 349.66 271.65 344.93 275.11 C 321.04 279.85 300.24 296.43 288.88 317.83 C 280.12 334.48 279.86 354.15 282.98 372.32 C 277.06 359.06 276.96 343.77 272.16 330.05 C 258.30 320.40 243.02 312.68 228.70 303.69 C 251.06 283.93 274.54 265.38 297.47 246.24 Z" />
</g>
<g id="#74a9dcff">
<path fill="#74a9dc" opacity="1.00" d=" M 82.12 246.40 C 87.83 248.91 93.04 252.41 98.47 255.47 C 128.43 272.72 158.64 289.54 188.46 307.02 C 187.94 316.30 184.65 325.15 183.50 334.35 C 176.50 369.85 170.04 405.47 163.21 441.00 C 162.83 443.56 161.32 445.88 158.87 446.87 C 135.62 458.64 112.24 470.16 89.06 482.08 C 86.88 483.27 84.72 484.60 82.25 485.11 C 81.96 405.54 82.20 325.97 82.12 246.40 M 94.02 265.74 C 93.98 332.56 94.01 399.38 94.01 466.21 C 97.62 465.65 100.42 463.07 103.75 461.73 C 118.79 454.08 133.87 446.49 149.00 438.99 C 150.38 438.19 152.31 437.60 152.67 435.82 C 160.35 394.92 168.38 354.04 176.11 313.18 C 149.09 296.78 121.50 281.33 94.02 265.74 Z" />
</g>
<g id="#a1e0e7ff">
<path fill="#a1e0e7" opacity="1.00" d=" M 582.10 307.15 C 603.30 290.63 624.21 273.71 645.62 257.46 C 645.28 290.64 645.38 323.83 645.32 357.02 C 624.05 367.28 602.96 377.95 581.84 388.52 C 573.06 380.50 565.41 371.40 557.02 362.99 C 544.77 349.24 531.34 336.59 518.76 323.17 C 524.46 318.72 529.59 313.59 535.28 309.12 L 535.67 309.12 C 548.30 308.68 561.15 310.34 573.64 308.31 C 576.37 307.37 579.57 308.63 582.10 307.15 M 586.91 317.84 C 585.79 318.75 584.44 319.34 582.99 319.25 C 569.68 319.26 556.35 319.13 543.05 319.38 C 539.90 320.39 537.94 323.58 535.20 325.39 C 552.13 341.54 567.75 359.42 584.94 375.09 C 601.01 366.17 618.10 359.08 634.04 349.95 C 633.92 327.17 634.08 304.40 633.95 281.63 C 618.05 293.38 602.33 305.44 586.91 317.84 Z" />
</g>
<g id="#478fdbff">
<path fill="#478fdb" opacity="1.00" d=" M 94.02 265.74 C 121.50 281.33 149.09 296.78 176.11 313.18 C 168.38 354.04 160.35 394.92 152.67 435.82 C 152.31 437.60 150.38 438.19 149.00 438.99 C 133.87 446.49 118.79 454.08 103.75 461.73 C 100.42 463.07 97.62 465.65 94.01 466.21 C 94.01 399.38 93.98 332.56 94.02 265.74 Z" />
</g>
<g id="#66c0e4ff">
<path fill="#66c0e4" opacity="1.00" d=" M 586.91 317.84 C 602.33 305.44 618.05 293.38 633.95 281.63 C 634.08 304.40 633.92 327.17 634.04 349.95 C 618.10 359.08 601.01 366.17 584.94 375.09 C 567.75 359.42 552.13 341.54 535.20 325.39 C 537.94 323.58 539.90 320.39 543.05 319.38 C 556.35 319.13 569.68 319.26 582.99 319.25 C 584.44 319.34 585.79 318.75 586.91 317.84 Z" />
</g>
<g id="#fefefcff">
<path fill="#fefefc" opacity="1.00" d=" M 535.67 309.12 C 548.14 307.62 561.03 309.17 573.64 308.31 C 561.15 310.34 548.30 308.68 535.67 309.12 Z" />
<path fill="#fefefc" opacity="1.00" d=" M 424.87 364.56 C 441.23 364.62 457.62 364.85 473.98 364.43 C 473.73 364.73 473.25 365.33 473.01 365.63 C 456.95 365.74 440.88 365.97 424.82 365.72 L 424.87 364.56 Z" />
<path fill="#fefefc" opacity="1.00" d=" M 707.07 373.11 C 720.85 363.69 739.37 364.85 754.68 369.57 C 754.93 375.63 754.82 381.70 754.90 387.77 C 745.71 382.18 733.78 379.33 723.54 383.65 C 718.32 385.62 716.55 393.22 721.29 396.71 C 731.52 405.23 746.82 406.78 754.78 418.25 C 763.18 430.56 758.15 449.50 743.91 454.91 C 729.14 460.10 712.08 459.26 697.61 453.43 C 697.77 446.72 697.51 440.01 697.73 433.31 C 703.84 438.76 711.62 442.72 719.96 442.68 C 725.80 443.02 733.03 443.04 736.83 437.77 C 739.61 433.32 736.49 427.93 732.57 425.41 C 723.84 419.91 713.37 417.37 705.42 410.61 C 694.30 401.17 694.90 381.47 707.07 373.11 Z" />
<path fill="#fefefc" opacity="1.00" d=" M 864.22 394.21 C 876.31 389.04 892.19 391.58 900.34 402.48 C 906.51 410.46 906.48 420.99 906.17 430.58 C 892.20 430.73 878.23 430.63 864.27 430.61 C 864.71 436.18 868.06 441.76 873.60 443.49 C 882.58 446.20 892.47 444.57 900.55 439.96 C 900.76 444.48 900.82 449.01 900.73 453.53 C 891.17 458.52 879.80 459.03 869.31 457.57 C 859.13 456.34 850.29 448.65 847.22 438.95 C 845.38 433.73 845.44 428.13 845.51 422.67 C 845.52 410.62 853.22 399.06 864.22 394.21 M 866.00 413.10 C 865.36 414.88 864.72 416.65 864.21 418.47 C 872.04 418.45 879.87 418.43 887.70 418.27 C 887.60 416.20 887.56 414.11 886.92 412.13 C 886.44 407.42 881.46 404.37 877.00 404.63 C 871.91 404.56 867.82 408.65 866.00 413.10 Z" />
</g>
<g id="#8fc4dcff">
<path fill="#8fc4dc" opacity="1.00" d=" M 201.87 316.54 C 218.60 325.05 235.07 334.41 251.14 343.98 C 255.28 359.88 258.70 375.96 262.78 391.87 C 280.93 396.25 298.90 401.29 316.97 405.99 C 320.72 407.24 323.94 409.63 327.42 411.45 C 342.27 419.95 357.83 427.08 373.05 434.86 C 385.71 441.01 399.51 446.15 409.31 456.69 C 422.32 470.18 420.91 494.56 406.48 506.48 C 389.69 520.36 364.89 519.49 345.73 511.31 C 328.25 503.95 318.98 484.48 319.70 466.16 C 303.77 466.11 287.84 466.14 271.92 466.22 C 270.37 466.06 269.31 467.40 268.15 468.18 C 255.28 479.86 242.00 491.12 229.16 502.85 C 211.45 485.87 195.09 467.57 177.82 450.16 C 175.11 448.12 177.12 444.57 177.21 441.87 C 185.30 400.07 193.28 358.23 201.87 316.54 M 210.14 332.68 C 202.07 367.91 196.32 403.65 188.62 438.97 C 188.32 440.96 187.08 443.45 189.14 444.93 C 201.98 459.49 215.60 473.40 228.96 487.50 C 241.53 476.92 253.73 465.82 265.15 454.02 C 287.08 454.05 309.00 453.90 330.93 454.08 C 330.73 461.86 331.68 469.58 332.49 477.30 C 333.83 487.23 340.26 496.49 349.68 500.26 C 365.24 507.80 386.04 508.57 399.70 496.72 C 409.37 488.23 409.23 471.82 399.80 463.21 C 390.78 454.79 379.01 450.22 367.98 445.11 C 354.83 438.18 341.27 432.04 328.28 424.80 C 321.01 421.28 314.14 416.71 306.27 414.62 C 288.96 409.69 271.39 405.74 254.08 400.85 C 249.89 385.37 246.12 369.74 242.78 354.05 C 242.40 352.69 242.03 351.07 240.60 350.45 C 230.25 344.87 220.34 338.52 210.14 332.68 Z" />
</g>
<g id="#9ed7e1ff">
<path fill="#9ed7e1" opacity="1.00" d=" M 355.92 321.77 C 371.61 315.27 390.52 315.93 405.20 324.76 C 418.59 333.01 425.68 349.11 424.87 364.56 L 424.82 365.72 C 440.88 365.97 456.95 365.74 473.01 365.63 C 473.25 365.33 473.73 364.73 473.98 364.43 C 485.22 354.29 496.93 344.45 508.99 335.24 C 513.68 338.04 516.68 342.74 520.57 346.45 C 534.77 360.91 548.74 375.60 562.74 390.24 C 565.46 393.60 570.51 396.16 570.40 400.98 C 568.35 436.99 563.22 472.71 560.47 508.66 C 555.61 509.01 551.71 505.45 547.63 503.38 C 534.35 496.97 521.32 490.12 507.88 484.06 C 503.53 478.69 502.66 471.38 499.70 465.25 C 495.58 456.90 493.11 447.67 488.72 439.56 C 474.29 435.63 459.47 433.13 445.19 428.63 C 437.73 425.66 432.01 419.80 425.13 415.82 C 406.77 404.88 387.05 396.52 368.03 386.84 C 360.06 382.85 351.98 378.73 345.39 372.63 C 338.64 366.42 334.34 357.19 335.37 347.91 C 335.96 335.96 345.39 326.31 355.92 321.77 M 348.78 341.87 C 345.46 348.96 346.63 358.13 352.19 363.80 C 357.87 369.62 365.73 372.38 372.75 376.18 C 393.05 386.96 414.46 395.66 433.95 407.94 C 439.38 411.52 443.87 416.79 450.33 418.58 C 465.19 422.55 480.00 426.74 494.98 430.23 C 496.52 430.72 498.55 431.13 499.00 432.97 C 503.11 444.70 507.38 456.39 512.18 467.86 C 513.59 471.20 514.13 475.72 518.19 476.91 C 529.21 481.77 539.54 488.41 550.90 492.32 C 553.73 464.76 555.83 437.22 558.54 409.70 C 558.82 406.94 559.98 403.54 557.85 401.25 C 547.56 389.24 535.62 378.75 525.35 366.72 C 519.89 361.76 515.65 355.52 509.67 351.16 C 508.46 350.11 507.07 351.48 506.08 352.13 C 498.17 358.15 490.85 364.89 482.89 370.85 C 480.12 372.83 477.87 376.52 474.01 376.01 C 454.75 375.86 435.47 376.27 416.23 375.81 C 412.41 369.14 414.29 360.37 412.26 352.95 C 409.30 337.99 393.75 328.06 378.99 328.88 C 367.80 328.19 355.13 332.07 348.78 341.87 Z" />
</g>
<g id="#61b4e1ff">
<path fill="#61b4e1" opacity="1.00" d=" M 348.78 341.87 C 355.13 332.07 367.80 328.19 378.99 328.88 C 393.75 328.06 409.30 337.99 412.26 352.95 C 414.29 360.37 412.41 369.14 416.23 375.81 C 435.47 376.27 454.75 375.86 474.01 376.01 C 477.87 376.52 480.12 372.83 482.89 370.85 C 490.85 364.89 498.17 358.15 506.08 352.13 C 507.07 351.48 508.46 350.11 509.67 351.16 C 515.65 355.52 519.89 361.76 525.35 366.72 C 535.62 378.75 547.56 389.24 557.85 401.25 C 559.98 403.54 558.82 406.94 558.54 409.70 C 555.83 437.22 553.73 464.76 550.90 492.32 C 539.54 488.41 529.21 481.77 518.19 476.91 C 514.13 475.72 513.59 471.20 512.18 467.86 C 507.38 456.39 503.11 444.70 499.00 432.97 C 498.55 431.13 496.52 430.72 494.98 430.23 C 480.00 426.74 465.19 422.55 450.33 418.58 C 443.87 416.79 439.38 411.52 433.95 407.94 C 414.46 395.66 393.05 386.96 372.75 376.18 C 365.73 372.38 357.87 369.62 352.19 363.80 C 346.63 358.13 345.46 348.96 348.78 341.87 Z" />
</g>
<g id="#52a0dbff">
<path fill="#52a0db" opacity="1.00" d=" M 210.14 332.68 C 220.34 338.52 230.25 344.87 240.60 350.45 C 242.03 351.07 242.40 352.69 242.78 354.05 C 246.12 369.74 249.89 385.37 254.08 400.85 C 271.39 405.74 288.96 409.69 306.27 414.62 C 314.14 416.71 321.01 421.28 328.28 424.80 C 341.27 432.04 354.83 438.18 367.98 445.11 C 379.01 450.22 390.78 454.79 399.80 463.21 C 409.23 471.82 409.37 488.23 399.70 496.72 C 386.04 508.57 365.24 507.80 349.68 500.26 C 340.26 496.49 333.83 487.23 332.49 477.30 C 331.68 469.58 330.73 461.86 330.93 454.08 C 309.00 453.90 287.08 454.05 265.15 454.02 C 253.73 465.82 241.53 476.92 228.96 487.50 C 215.60 473.40 201.98 459.49 189.14 444.93 C 187.08 443.45 188.32 440.96 188.62 438.97 C 196.32 403.65 202.07 367.91 210.14 332.68 Z" />
</g>
<g id="#fefefdff">
<path fill="#fefefd" opacity="1.00" d=" M 771.56 362.28 C 778.18 362.15 784.81 362.18 791.43 362.48 C 791.65 375.83 791.38 389.19 791.56 402.55 C 795.32 398.27 799.43 393.56 805.33 392.48 C 813.89 390.18 824.64 392.51 829.25 400.72 C 834.33 409.93 832.92 420.90 833.19 431.00 C 832.90 439.61 833.84 448.32 832.68 456.87 C 826.34 456.75 819.97 457.21 813.66 456.59 C 813.50 443.71 813.62 430.83 813.49 417.96 C 813.58 413.07 810.58 407.74 805.61 406.50 C 798.70 404.97 791.61 411.08 791.64 418.06 C 791.35 430.96 791.68 443.88 791.39 456.78 C 784.85 456.98 778.30 456.96 771.76 456.78 C 771.32 425.28 771.79 393.78 771.56 362.28 Z" />
<path fill="#fefefd" opacity="1.00" d=" M 918.25 362.43 C 924.68 362.23 931.13 362.16 937.56 362.57 C 937.90 393.98 937.71 425.41 937.66 456.83 C 931.21 456.88 924.76 456.98 918.31 456.78 C 918.05 425.33 918.19 393.88 918.25 362.43 Z" />
</g>
<g id="#fefefeff">
<path fill="#fefefe" opacity="1.00" d=" M 954.56 362.65 C 960.83 361.99 967.16 362.40 973.46 362.41 C 975.22 365.63 974.07 369.49 974.42 373.00 C 974.11 400.91 974.87 428.85 974.17 456.76 C 967.64 456.98 961.10 456.91 954.58 456.81 C 954.40 425.43 954.47 394.04 954.56 362.65 Z" />
</g>
<g id="#87bcdcff">
<path fill="#87bcdc" opacity="1.00" d=" M 630.76 379.79 C 635.50 377.42 640.13 374.72 645.27 373.26 C 645.23 433.45 645.43 493.63 645.27 553.81 C 641.85 553.58 639.07 551.34 636.02 550.02 C 615.64 538.93 595.05 528.22 574.53 517.42 C 574.34 515.95 574.09 514.47 574.10 513.00 C 577.70 476.78 581.48 440.52 584.43 404.25 C 585.26 401.32 588.51 400.13 590.94 398.77 C 604.15 392.31 617.49 386.13 630.76 379.79 M 598.46 407.55 C 594.49 409.35 595.16 414.44 594.95 418.03 C 592.56 436.98 591.22 456.03 589.01 474.99 C 588.63 487.00 585.92 498.85 585.99 510.88 C 592.24 514.91 599.23 517.61 605.59 521.46 C 615.18 525.97 623.94 532.19 633.97 535.76 C 633.95 487.50 634.15 439.24 633.87 390.98 C 621.76 395.82 610.36 402.23 598.46 407.55 Z" />
</g>
<g id="#3772d4ff">
<path fill="#3772d4" opacity="1.00" d=" M 995.85 379.92 C 1001.59 376.83 1008.28 375.81 1014.59 374.28 C 1016.00 380.32 1014.76 386.61 1015.41 392.74 C 1019.87 393.99 1024.93 392.90 1029.63 393.32 C 1029.63 398.04 1029.53 402.77 1029.49 407.49 C 1024.94 408.01 1019.59 406.70 1015.55 408.43 C 1015.19 418.28 1014.80 428.22 1015.63 438.05 C 1016.76 444.56 1024.52 444.28 1029.24 442.08 C 1029.55 446.75 1029.66 451.44 1029.28 456.11 C 1021.05 458.73 1011.51 459.69 1003.72 455.25 C 998.09 451.53 995.90 444.41 995.61 437.97 C 995.27 428.23 995.70 418.48 995.34 408.74 C 994.81 408.48 993.76 407.97 993.24 407.72 C 990.62 407.67 988.02 407.62 985.42 407.50 C 985.34 402.89 985.17 398.26 985.66 393.67 C 988.99 393.35 992.34 393.30 995.68 393.02 C 995.68 388.67 994.97 384.20 995.85 379.92 Z" />
</g>
<g id="#509dddff">
<path fill="#509ddd" opacity="1.00" d=" M 598.46 407.55 C 610.36 402.23 621.76 395.82 633.87 390.98 C 634.15 439.24 633.95 487.50 633.97 535.76 C 623.94 532.19 615.18 525.97 605.59 521.46 C 599.23 517.61 592.24 514.91 585.99 510.88 C 585.92 498.85 588.63 487.00 589.01 474.99 C 591.22 456.03 592.56 436.98 594.95 418.03 C 595.16 414.44 594.49 409.35 598.46 407.55 Z" />
</g>
<g id="#3772d2ff">
<path fill="#3772d2" opacity="1.00" d=" M 1032.50 393.21 C 1039.47 393.27 1046.45 393.21 1053.43 393.36 C 1058.85 408.26 1062.37 423.94 1068.21 438.61 C 1072.25 424.68 1076.79 410.90 1081.14 397.07 C 1081.60 395.55 1082.50 393.63 1084.31 393.49 C 1089.77 393.01 1095.30 393.12 1100.78 393.60 C 1094.74 413.19 1086.49 432.09 1079.46 451.37 C 1075.92 460.42 1073.13 470.16 1066.67 477.67 C 1059.26 486.57 1046.25 489.56 1035.54 485.39 C 1035.59 480.61 1035.73 475.83 1035.63 471.05 C 1040.52 471.60 1045.89 473.19 1050.42 470.36 C 1054.98 468.14 1056.01 462.75 1057.51 458.39 C 1058.66 454.99 1056.11 451.89 1055.39 448.68 C 1047.62 430.26 1039.90 411.80 1032.50 393.21 Z" />
</g>
<g id="#89bdd9ff">
<path fill="#89bdd9" opacity="1.00" d=" M 454.06 443.00 C 462.44 445.73 471.40 446.90 479.45 450.52 C 484.87 464.17 489.54 478.15 495.46 491.60 C 499.45 496.02 505.57 497.60 510.70 500.34 C 525.02 508.11 539.82 514.96 554.11 522.80 C 523.13 550.60 491.37 577.58 460.00 604.98 C 457.82 607.32 454.61 605.46 452.00 605.01 C 420.96 596.03 389.92 587.19 358.73 578.76 C 364.27 571.70 371.71 566.37 377.96 559.94 C 381.92 556.70 385.47 551.81 391.05 551.72 C 415.78 548.92 440.57 536.15 453.13 513.99 C 466.04 492.53 464.04 465.18 454.06 443.00 M 474.17 467.73 C 474.50 485.57 473.17 504.54 463.18 519.95 C 452.90 536.23 437.79 549.86 419.58 556.56 C 410.64 559.79 401.39 562.22 391.99 563.63 C 387.20 565.46 383.57 569.68 380.56 573.70 C 402.88 579.19 424.89 585.94 447.00 592.22 C 449.87 593.07 452.74 594.01 455.77 594.08 C 480.01 572.52 504.54 551.27 528.99 529.92 C 530.59 528.10 533.99 527.07 534.00 524.38 C 518.23 516.88 502.94 508.40 487.22 500.80 C 482.16 490.07 478.48 478.76 474.17 467.73 Z" />
</g>
<g id="#74a5dbff">
<path fill="#74a5db" opacity="1.00" d=" M 82.52 501.65 C 110.49 486.94 138.98 473.18 167.04 458.65 C 184.45 477.45 202.95 495.48 219.74 514.89 C 213.56 521.30 207.03 527.56 199.99 533.00 C 189.07 533.75 178.03 533.10 167.06 533.39 C 165.76 533.23 164.93 534.35 164.01 535.05 C 144.09 552.14 124.99 570.21 104.26 586.32 C 98.09 587.63 90.62 585.47 86.85 580.09 C 80.81 572.80 82.36 562.76 82.12 554.00 C 82.33 536.56 81.63 519.03 82.52 501.65 M 94.06 508.32 C 93.91 529.18 94.07 550.04 93.97 570.90 C 96.84 572.45 100.85 575.72 103.88 572.83 C 123.29 556.62 141.91 539.44 161.15 523.08 C 171.44 522.53 181.79 523.17 192.09 522.72 C 197.41 522.59 200.48 517.67 204.42 514.85 C 191.85 500.03 177.35 486.91 164.69 472.14 C 141.48 484.81 117.62 496.32 94.06 508.32 Z" />
</g>
<g id="#4d92d8ff">
<path fill="#4d92d8" opacity="1.00" d=" M 474.17 467.73 C 478.48 478.76 482.16 490.07 487.22 500.80 C 502.94 508.40 518.23 516.88 534.00 524.38 C 533.99 527.07 530.59 528.10 528.99 529.92 C 504.54 551.27 480.01 572.52 455.77 594.08 C 452.74 594.01 449.87 593.07 447.00 592.22 C 424.89 585.94 402.88 579.19 380.56 573.70 C 383.57 569.68 387.20 565.46 391.99 563.63 C 401.39 562.22 410.64 559.79 419.58 556.56 C 437.79 549.86 452.90 536.23 463.18 519.95 C 473.17 504.54 474.50 485.57 474.17 467.73 Z" />
</g>
<g id="#4179d5ff">
<path fill="#4179d5" opacity="1.00" d=" M 94.06 508.32 C 117.62 496.32 141.48 484.81 164.69 472.14 C 177.35 486.91 191.85 500.03 204.42 514.85 C 200.48 517.67 197.41 522.59 192.09 522.72 C 181.79 523.17 171.44 522.53 161.15 523.08 C 141.91 539.44 123.29 556.62 103.88 572.83 C 100.85 575.72 96.84 572.45 93.97 570.90 C 94.07 550.04 93.91 529.18 94.06 508.32 Z" />
</g>
<g id="#7bb1dbff">
<path fill="#7bb1db" opacity="1.00" d=" M 209.05 545.07 C 231.52 523.34 254.75 502.41 277.01 480.48 C 281.79 505.88 298.35 528.82 321.59 540.40 C 333.24 547.17 346.56 549.91 359.70 552.02 C 354.69 558.82 347.69 563.80 341.83 569.81 C 329.79 580.76 318.25 592.24 306.35 603.34 C 306.85 617.41 306.54 631.50 306.64 645.57 C 299.67 651.44 293.18 657.85 286.48 664.03 C 291.22 669.60 293.89 678.01 289.73 684.67 C 284.91 692.56 272.54 694.06 265.51 688.42 C 259.75 684.26 259.30 676.26 260.87 669.92 C 263.11 664.30 268.71 661.23 273.98 659.02 C 281.16 652.78 288.16 646.30 295.20 639.90 C 295.29 625.98 295.43 612.06 294.92 598.15 C 308.69 585.23 322.35 572.15 335.82 558.93 C 332.52 556.94 328.80 555.81 325.07 554.96 C 310.72 569.35 295.63 583.01 281.15 597.28 C 281.70 610.30 281.42 623.35 281.56 636.38 C 269.96 647.28 257.61 657.39 246.12 668.42 C 247.25 673.39 250.67 678.49 248.79 684.01 C 246.00 693.24 233.28 698.64 225.13 692.86 C 220.19 690.14 217.09 684.63 217.32 679.00 C 217.04 670.51 224.87 663.14 233.27 663.41 C 244.26 654.78 253.99 644.68 264.65 635.66 C 266.70 633.35 270.59 631.67 269.99 628.02 C 269.89 615.97 269.96 603.92 269.82 591.88 C 283.93 578.21 297.59 564.03 312.46 551.17 C 312.55 550.76 312.74 549.95 312.84 549.55 C 309.36 547.28 306.13 544.67 302.83 542.18 C 285.14 558.47 267.85 575.19 250.64 591.97 C 250.74 604.64 250.86 617.32 250.74 630.00 C 250.94 631.31 249.75 632.10 248.95 632.91 C 233.17 646.18 217.09 659.11 201.54 672.64 C 201.29 676.45 202.98 680.54 201.49 684.37 C 198.35 693.42 185.91 697.00 178.00 691.98 C 168.94 687.24 167.60 672.93 175.45 666.45 C 180.65 661.76 188.22 662.39 194.59 663.70 C 209.49 650.81 224.82 638.41 239.32 625.05 C 239.37 612.27 239.16 599.48 239.47 586.70 C 257.48 569.58 274.94 551.86 293.47 535.31 C 292.37 531.35 287.23 528.63 284.87 524.88 C 265.35 542.68 246.63 561.39 226.35 578.34 C 217.39 586.76 207.82 594.49 198.89 602.94 C 200.58 607.69 200.83 613.49 197.78 617.76 C 193.42 624.45 183.79 627.28 176.73 623.27 C 166.62 618.99 164.69 603.09 173.46 596.53 C 178.34 592.60 185.38 592.90 191.00 594.87 C 219.97 568.24 249.94 542.51 277.95 514.93 C 276.21 510.61 273.30 506.72 271.74 502.25 C 251.42 520.43 232.19 539.80 211.90 557.99 C 200.12 559.02 188.15 558.16 176.30 558.44 C 159.25 572.55 142.70 587.25 126.13 601.93 C 128.99 608.04 128.45 616.45 123.04 621.06 C 116.43 627.96 103.83 626.30 98.70 618.41 C 92.38 609.65 98.23 595.54 108.77 593.58 C 112.25 592.71 116.49 595.38 119.21 592.23 C 135.77 577.78 152.46 563.48 169.08 549.11 C 170.21 548.20 171.27 546.75 172.89 546.90 C 183.60 547.01 194.32 547.14 205.04 547.07 C 206.71 547.31 207.91 546.04 209.05 545.07 M 181.40 603.53 C 177.90 605.05 176.73 609.78 179.32 612.65 C 182.07 616.32 188.16 614.77 189.62 610.69 C 191.21 606.18 185.65 601.43 181.40 603.53 M 110.33 604.48 C 106.48 604.66 104.80 609.94 107.33 612.63 C 110.27 616.65 117.80 615.02 118.56 610.01 C 118.30 605.91 114.13 603.50 110.33 604.48 M 274.19 670.32 C 269.77 671.41 268.73 678.03 272.36 680.61 C 275.20 682.71 280.56 682.47 281.47 678.41 C 283.59 673.91 278.78 668.95 274.19 670.32 M 184.18 673.34 C 178.58 674.98 180.34 684.59 186.02 684.70 C 189.38 684.96 191.60 681.94 192.44 679.04 C 191.82 675.34 188.05 671.84 184.18 673.34 M 230.29 674.34 C 226.39 676.49 226.89 683.09 230.96 684.77 C 234.69 686.72 239.59 682.96 238.96 678.87 C 238.23 675.24 233.78 672.11 230.29 674.34 Z" />
</g>
<g id="#77a8d6ff">
<path fill="#77a8d6" opacity="1.00" d=" M 567.69 530.65 C 569.13 529.36 570.85 531.22 572.28 531.69 C 595.28 544.59 618.78 556.60 641.86 569.36 C 641.85 575.22 637.67 579.88 633.69 583.70 C 626.99 589.13 619.53 593.51 612.40 598.32 C 568.70 626.85 525.09 655.52 481.31 683.91 C 476.74 663.00 472.55 641.96 468.65 620.90 C 467.42 616.14 471.90 613.51 474.96 610.92 C 505.98 584.28 536.58 557.17 567.69 530.65 M 570.32 543.16 C 546.04 564.63 521.37 585.68 497.06 607.12 C 491.35 612.10 485.18 616.60 480.24 622.39 C 483.05 636.58 485.84 651.01 489.14 664.95 C 534.64 634.49 580.50 604.53 626.29 574.52 C 608.11 563.27 588.57 554.29 570.32 543.16 Z" />
</g>
<g id="#4480d5ff">
<path fill="#4480d5" opacity="1.00" d=" M 570.32 543.16 C 588.57 554.29 608.11 563.27 626.29 574.52 C 580.50 604.53 534.64 634.49 489.14 664.95 C 485.84 651.01 483.05 636.58 480.24 622.39 C 485.18 616.60 491.35 612.10 497.06 607.12 C 521.37 585.68 546.04 564.63 570.32 543.16 Z" />
</g>
<g id="#719fd7ff">
<path fill="#719fd7" opacity="1.00" d=" M 331.02 603.02 C 336.20 598.18 341.60 593.51 346.96 588.92 C 380.83 598.45 414.37 609.24 448.28 618.69 C 451.66 620.01 454.99 622.88 455.50 626.67 C 459.41 644.74 462.24 663.04 466.64 681.01 C 467.34 684.52 468.55 688.14 467.69 691.75 C 457.56 699.16 446.56 705.25 436.11 712.18 C 426.86 717.47 418.54 724.41 408.63 728.51 C 400.30 732.25 390.88 731.82 381.97 731.42 C 369.77 729.54 359.70 721.71 349.18 715.81 C 331.39 705.10 313.40 694.69 295.66 683.89 C 295.28 680.24 295.39 676.57 295.57 672.91 C 306.62 663.64 317.18 653.80 327.93 644.17 C 327.88 632.10 327.87 620.02 327.86 607.95 C 327.53 605.70 329.77 604.48 331.02 603.02 M 349.22 603.17 C 345.81 606.33 341.69 608.95 339.23 612.99 C 338.70 625.52 339.15 638.11 339.00 650.67 C 329.96 658.06 320.97 665.53 312.07 673.10 C 310.98 674.45 308.57 675.49 309.07 677.53 C 329.26 689.91 349.78 701.76 370.14 713.86 C 380.31 720.45 393.60 720.46 404.79 716.73 C 422.06 707.30 438.17 695.88 455.07 685.82 C 455.38 681.56 454.64 677.36 453.58 673.26 C 451.02 659.45 447.77 645.78 445.36 631.96 C 445.28 629.07 442.16 628.75 440.04 628.08 C 412.12 619.44 384.02 611.39 356.01 603.04 C 353.81 602.57 351.04 601.11 349.22 603.17 Z" />
</g>
<g id="#417ad4ff">
<path fill="#417ad4" opacity="1.00" d=" M 349.22 603.17 C 351.04 601.11 353.81 602.57 356.01 603.04 C 384.02 611.39 412.12 619.44 440.04 628.08 C 442.16 628.75 445.28 629.07 445.36 631.96 C 447.77 645.78 451.02 659.45 453.58 673.26 C 454.64 677.36 455.38 681.56 455.07 685.82 C 438.17 695.88 422.06 707.30 404.79 716.73 C 393.60 720.46 380.31 720.45 370.14 713.86 C 349.78 701.76 329.26 689.91 309.07 677.53 C 308.57 675.49 310.98 674.45 312.07 673.10 C 320.97 665.53 329.96 658.06 339.00 650.67 C 339.15 638.11 338.70 625.52 339.23 612.99 C 341.69 608.95 345.81 606.33 349.22 603.17 Z" />
</g>
</svg>
