<?xml version="1.0" encoding="UTF-8" ?>
<!DOCTYPE svg PUBLIC "-//W3C//DTD SVG 1.1//EN" "http://www.w3.org/Graphics/SVG/1.1/DTD/svg11.dtd">
<svg width="1024pt" height="1024pt" viewBox="0 0 1024 1024" version="1.1" xmlns="http://www.w3.org/2000/svg">
<g id="#a3dee6ff">
<path fill="#a3dee6" opacity="1.00" d=" M 448.69 129.89 C 469.17 118.64 490.22 108.41 510.88 97.50 C 517.20 99.72 523.13 102.90 529.01 106.09 C 560.83 122.85 592.92 139.11 624.73 155.89 C 610.34 169.51 595.59 182.84 581.88 197.15 C 581.04 209.05 582.04 221.13 581.43 233.10 C 575.14 239.01 568.46 244.48 562.27 250.49 C 540.94 244.31 519.93 237.02 498.73 230.40 C 489.78 227.83 480.83 225.20 472.14 221.83 C 470.63 221.26 470.51 219.37 470.07 218.05 C 463.72 188.48 455.68 159.30 448.69 129.89 M 509.54 111.47 C 493.56 119.53 477.77 127.94 461.87 136.16 C 467.33 161.83 474.24 187.28 480.22 212.88 C 480.46 213.10 480.93 213.53 481.17 213.75 C 506.08 221.84 531.09 229.66 555.97 237.85 C 558.77 238.93 560.68 236.11 562.68 234.69 C 565.24 232.28 568.38 230.16 570.05 227.02 C 570.01 216.00 569.95 204.97 570.02 193.94 C 569.79 192.57 571.00 191.70 571.79 190.80 C 578.47 184.13 585.22 177.54 591.91 170.89 C 596.22 166.81 601.16 163.27 604.32 158.14 C 574.99 142.61 545.55 127.29 516.08 112.03 C 514.13 110.87 511.60 110.23 509.54 111.47 Z" />
</g>
<g id="#90dee8ff">
<path fill="#90dee8" opacity="1.00" d=" M 676.40 116.26 C 679.36 107.93 689.49 102.81 697.84 106.31 C 706.25 109.48 710.10 119.84 706.80 128.00 C 703.22 135.87 692.68 140.51 684.85 136.12 C 673.43 145.54 663.72 156.84 652.55 166.56 C 639.33 179.95 625.06 192.29 612.01 205.85 C 612.64 219.30 612.63 232.74 611.56 246.19 C 600.43 255.76 589.81 265.89 579.05 275.87 C 583.62 277.63 588.33 279.04 592.80 281.06 C 605.57 268.59 618.44 256.21 631.40 243.93 C 631.32 233.45 630.67 222.79 631.55 212.42 C 645.18 198.71 659.38 185.51 673.78 172.62 C 682.78 172.24 691.82 172.53 700.84 172.50 C 716.06 157.77 730.96 142.70 746.23 128.02 C 743.85 120.95 745.34 112.20 751.98 107.99 C 759.15 102.45 770.68 105.14 774.81 113.15 C 779.32 119.93 776.85 129.99 769.97 134.20 C 765.51 137.56 759.33 137.94 754.22 135.97 C 738.38 151.55 722.48 167.08 706.55 182.57 C 705.51 183.42 704.48 184.74 702.98 184.45 C 694.90 184.66 686.89 183.55 678.81 183.87 C 666.86 194.32 655.60 205.54 643.70 216.05 C 643.51 227.08 643.89 238.13 643.57 249.16 C 630.03 261.29 617.06 274.12 603.84 286.63 C 606.82 287.62 609.25 291.43 612.19 291.35 C 638.83 266.33 664.82 240.55 691.09 215.10 C 699.03 207.07 707.63 199.69 715.17 191.27 C 722.80 191.21 730.42 191.23 738.05 191.37 C 738.68 182.57 747.91 176.76 756.23 178.58 C 764.87 179.38 770.97 188.82 768.98 197.06 C 767.53 204.96 759.20 210.51 751.36 209.50 C 746.27 208.64 741.84 205.69 738.14 202.21 C 732.09 203.12 725.94 202.50 719.84 202.64 C 687.30 234.79 654.63 266.85 621.42 298.32 C 622.89 302.04 626.64 304.71 628.94 308.09 C 629.67 309.50 631.00 308.64 631.86 307.86 C 650.57 290.19 669.39 272.56 689.08 256.01 C 698.36 255.55 707.70 256.13 716.99 255.77 C 719.52 254.58 721.47 252.49 723.27 250.41 C 722.98 247.29 722.79 244.15 722.94 241.02 C 722.96 232.95 731.30 226.68 739.00 227.20 C 749.33 226.57 757.78 237.97 754.61 247.77 C 751.61 256.32 740.60 261.61 732.28 257.29 C 728.41 260.41 724.77 263.77 721.67 267.67 C 712.19 267.82 702.67 267.51 693.18 267.72 C 674.12 283.76 656.29 301.22 637.67 317.75 C 636.32 318.58 637.45 320.04 637.93 321.02 C 640.08 324.67 641.28 328.76 642.97 332.63 C 661.94 316.37 680.39 299.52 699.20 283.09 C 712.79 283.11 726.39 283.22 739.97 283.07 C 756.02 270.88 771.08 257.41 786.95 244.96 C 785.67 238.49 786.78 230.60 792.98 226.99 C 801.67 219.99 816.33 226.28 817.61 237.25 C 819.54 246.73 810.46 256.15 801.03 255.12 C 798.80 255.04 796.86 253.54 794.70 253.49 C 777.00 266.80 760.72 281.85 743.11 295.29 C 729.62 295.50 716.12 295.31 702.63 295.43 C 680.98 314.60 659.18 333.57 637.60 352.81 C 634.09 343.10 631.79 332.74 626.20 323.86 C 611.22 299.59 583.16 285.01 554.92 284.19 C 555.25 281.05 558.54 279.61 560.49 277.50 C 573.35 265.54 586.16 253.46 599.60 242.18 C 599.85 228.36 599.57 214.44 600.56 200.71 C 625.85 176.31 651.25 152.00 676.78 127.84 C 676.13 124.03 675.40 120.06 676.40 116.26 M 756.91 116.91 C 755.80 119.26 754.97 122.08 756.63 124.41 C 759.43 128.91 767.70 126.40 767.23 120.99 C 767.12 115.92 760.60 113.80 756.91 116.91 M 688.34 116.38 C 685.15 118.63 685.25 124.28 688.58 126.36 C 692.28 129.00 698.84 125.85 697.77 120.98 C 697.34 116.68 691.98 113.85 688.34 116.38 M 747.59 191.85 C 745.61 198.17 754.49 202.29 758.34 197.35 C 761.53 193.28 757.08 188.48 752.98 187.55 C 750.73 188.36 748.77 189.74 747.59 191.85 M 799.37 234.47 C 796.35 236.05 794.54 240.13 797.04 242.97 C 799.57 247.39 808.60 245.40 807.75 239.95 C 807.99 235.95 802.87 232.48 799.37 234.47 M 738.38 237.45 C 735.28 237.60 731.59 240.71 733.22 244.03 C 734.42 247.92 739.82 250.25 742.84 246.82 C 747.23 243.70 743.39 236.61 738.38 237.45 Z" />
</g>
<g id="#6ccae7ff">
<path fill="#6ccae7" opacity="1.00" d=" M 509.54 111.47 C 511.60 110.23 514.13 110.87 516.08 112.03 C 545.55 127.29 574.99 142.61 604.32 158.14 C 601.16 163.27 596.22 166.81 591.91 170.89 C 585.22 177.54 578.47 184.13 571.79 190.80 C 571.00 191.70 569.79 192.57 570.02 193.94 C 569.95 204.97 570.01 216.00 570.05 227.02 C 568.38 230.16 565.24 232.28 562.68 234.69 C 560.68 236.11 558.77 238.93 555.97 237.85 C 531.09 229.66 506.08 221.84 481.17 213.75 C 480.93 213.53 480.46 213.10 480.22 212.88 C 474.24 187.28 467.33 161.83 461.87 136.16 C 477.77 127.94 493.56 119.53 509.54 111.47 Z" />
</g>
<g id="#97cde1ff">
<path fill="#97cde1" opacity="1.00" d=" M 423.99 141.99 C 428.11 140.10 431.96 137.59 436.36 136.37 C 443.93 165.21 450.77 194.32 457.54 223.39 C 427.45 247.98 397.46 272.73 367.58 297.60 C 360.06 295.32 353.72 289.85 346.65 286.35 C 318.23 270.51 290.48 253.48 261.94 237.87 C 261.16 237.26 259.46 236.54 260.36 235.31 C 264.90 226.24 272.86 219.06 282.01 214.81 C 329.27 190.40 376.74 166.40 423.99 141.99 M 302.57 217.64 C 293.55 222.64 282.91 225.63 275.46 232.89 C 305.84 249.85 335.93 267.30 365.77 285.19 C 369.92 280.47 375.18 276.96 379.93 272.91 C 401.49 254.81 423.49 237.19 444.99 219.04 C 440.82 196.83 434.33 174.95 429.80 152.77 C 387.28 174.18 344.70 195.48 302.57 217.64 Z" />
</g>
<g id="#62b5e5ff">
<path fill="#62b5e5" opacity="1.00" d=" M 302.57 217.64 C 344.70 195.48 387.28 174.18 429.80 152.77 C 434.33 174.95 440.82 196.83 444.99 219.04 C 423.49 237.19 401.49 254.81 379.93 272.91 C 375.18 276.96 369.92 280.47 365.77 285.19 C 335.93 267.30 305.84 249.85 275.46 232.89 C 282.91 225.63 293.55 222.64 302.57 217.64 Z" />
</g>
<g id="#9ed5e3ff">
<path fill="#9ed5e3" opacity="1.00" d=" M 467.27 234.29 C 495.46 241.73 522.95 251.75 550.95 259.85 C 541.22 268.52 532.19 278.04 522.02 286.17 C 501.71 290.85 482.38 302.35 471.56 320.58 C 458.89 341.91 459.28 370.61 473.48 391.10 C 464.11 389.71 454.82 387.43 445.87 384.33 C 437.30 370.17 438.32 352.52 432.61 337.30 C 415.45 326.98 397.55 317.86 380.39 307.52 C 378.11 306.76 380.53 305.19 381.42 304.36 C 410.19 281.21 438.19 256.98 467.27 234.29 M 465.92 249.00 C 443.81 267.27 421.54 285.35 399.74 303.99 C 398.93 306.38 402.00 307.29 403.51 308.37 C 415.15 314.53 426.26 321.57 437.56 328.32 C 439.83 329.69 442.73 331.06 443.08 334.03 C 445.85 345.10 447.73 356.38 450.44 367.47 C 451.05 369.56 451.37 371.90 453.00 373.51 C 451.80 364.51 450.29 355.38 451.49 346.29 C 453.37 314.27 478.86 286.82 508.99 278.05 C 517.14 277.20 522.79 270.57 528.28 265.14 C 510.00 257.98 490.85 253.13 472.36 246.50 C 469.77 245.11 467.82 247.66 465.92 249.00 Z" />
</g>
<g id="#63bae5ff">
<path fill="#63bae5" opacity="1.00" d=" M 465.92 249.00 C 467.82 247.66 469.77 245.11 472.36 246.50 C 490.85 253.13 510.00 257.98 528.28 265.14 C 522.79 270.57 517.14 277.20 508.99 278.05 C 478.86 286.82 453.37 314.27 451.49 346.29 C 450.29 355.38 451.80 364.51 453.00 373.51 C 451.37 371.90 451.05 369.56 450.44 367.47 C 447.73 356.38 445.85 345.10 443.08 334.03 C 442.73 331.06 439.83 329.69 437.56 328.32 C 426.26 321.57 415.15 314.53 403.51 308.37 C 402.00 307.29 398.93 306.38 399.74 303.99 C 421.54 285.35 443.81 267.27 465.92 249.00 Z" />
</g>
<g id="#74a9dcff">
<path fill="#74a9dc" opacity="1.00" d=" M 252.19 247.86 C 287.10 267.46 321.90 287.39 356.59 307.40 C 358.73 307.94 358.60 310.20 358.28 311.92 C 349.64 354.19 341.97 396.69 333.89 439.07 C 333.25 442.45 332.86 446.79 329.14 448.22 C 303.59 461.09 278.01 473.91 252.50 486.84 C 251.89 483.59 252.20 480.28 252.14 477.00 C 252.14 400.62 252.04 324.24 252.19 247.86 M 264.01 267.54 C 263.99 334.22 264.00 400.91 264.01 467.59 C 280.57 460.47 296.28 451.39 312.62 443.72 C 315.94 441.71 320.19 440.75 322.68 437.65 C 329.44 401.03 336.61 364.48 343.63 327.90 C 344.28 323.34 346.20 318.98 346.02 314.31 C 323.93 301.25 301.49 288.79 279.37 275.77 C 274.24 273.04 269.44 269.66 264.01 267.54 Z" />
</g>
<g id="#a0e0e7ff">
<path fill="#a0e0e7" opacity="1.00" d=" M 750.95 309.26 C 772.76 292.89 793.76 275.35 815.58 258.96 C 815.30 292.08 815.27 325.20 815.34 358.31 C 794.27 368.83 773.11 379.38 752.01 389.83 C 737.16 376.53 724.48 360.79 710.17 346.83 C 703.41 339.26 695.95 332.38 688.95 325.04 C 694.27 319.80 699.98 314.64 706.12 310.28 C 720.96 309.19 736.05 310.61 750.95 309.26 M 762.63 314.67 C 759.24 316.94 756.52 321.24 752.01 321.00 C 738.65 321.06 725.27 320.88 711.91 321.08 C 709.33 322.52 707.46 324.89 705.42 326.96 C 716.34 338.25 727.70 349.12 738.56 360.48 C 743.14 366.57 749.73 370.69 754.28 376.81 C 769.60 368.82 785.15 361.28 800.63 353.62 C 801.95 352.73 804.33 352.14 803.98 350.07 C 804.00 327.86 804.02 305.65 803.98 283.44 C 789.69 293.05 776.34 304.18 762.63 314.67 Z" />
</g>
<g id="#478fdbff">
<path fill="#478fdb" opacity="1.00" d=" M 264.01 267.54 C 269.44 269.66 274.24 273.04 279.37 275.77 C 301.49 288.79 323.93 301.25 346.02 314.31 C 346.20 318.98 344.28 323.34 343.63 327.90 C 336.61 364.48 329.44 401.03 322.68 437.65 C 320.19 440.75 315.94 441.71 312.62 443.72 C 296.28 451.39 280.57 460.47 264.01 467.59 C 264.00 400.91 263.99 334.22 264.01 267.54 Z" />
</g>
<g id="#66c0e4ff">
<path fill="#66c0e4" opacity="1.00" d=" M 762.63 314.67 C 776.34 304.18 789.69 293.05 803.98 283.44 C 804.02 305.65 804.00 327.86 803.98 350.07 C 804.33 352.14 801.95 352.73 800.63 353.62 C 785.15 361.28 769.60 368.82 754.28 376.81 C 749.73 370.69 743.14 366.57 738.56 360.48 C 727.70 349.12 716.34 338.25 705.42 326.96 C 707.46 324.89 709.33 322.52 711.91 321.08 C 725.27 320.88 738.65 321.06 752.01 321.00 C 756.52 321.24 759.24 316.94 762.63 314.67 Z" />
</g>
<g id="#8fc4dbff">
<path fill="#8fc4db" opacity="1.00" d=" M 371.64 318.23 C 388.08 325.42 403.06 335.80 419.16 343.78 C 421.52 344.93 421.55 347.86 422.31 350.03 C 425.89 364.42 429.12 378.91 432.74 393.29 C 450.21 397.67 467.59 402.36 485.00 406.97 C 489.76 407.90 493.64 411.04 497.88 413.21 C 512.50 421.56 527.82 428.59 542.81 436.24 C 555.64 442.51 569.71 447.65 579.54 458.48 C 592.08 471.74 590.82 495.18 577.31 507.31 C 560.42 521.93 534.88 521.15 515.33 512.64 C 503.51 507.54 495.20 496.38 491.59 484.25 C 490.07 478.78 490.34 473.05 489.56 467.48 C 489.46 467.29 489.26 466.92 489.16 466.74 C 473.08 467.48 456.93 466.78 440.89 467.63 C 426.61 479.30 413.22 492.56 398.96 503.99 C 381.27 487.38 365.25 469.06 348.06 451.94 C 344.81 449.51 347.36 445.23 347.43 441.99 C 353.23 413.01 358.54 383.94 364.37 354.97 C 366.62 342.69 369.89 330.60 371.64 318.23 M 380.20 334.02 C 372.12 369.19 366.36 404.85 358.72 440.11 C 358.28 442.29 357.30 444.91 359.15 446.74 C 372.03 460.21 384.45 474.13 397.52 487.43 C 398.46 488.62 400.32 488.55 401.26 487.40 C 412.17 476.85 424.31 467.48 434.32 456.03 C 456.55 455.95 478.77 456.05 501.00 455.97 C 501.40 467.52 500.81 480.00 506.54 490.45 C 514.75 502.75 530.82 507.66 545.00 507.01 C 555.66 507.30 566.97 502.88 573.23 493.97 C 579.77 484.79 577.39 471.04 568.93 463.89 C 558.13 454.35 544.06 450.10 531.62 443.28 C 519.88 437.46 508.08 431.73 496.59 425.41 C 490.07 422.35 483.98 418.21 476.98 416.29 C 460.07 411.60 443.01 407.47 426.06 402.98 C 423.46 402.42 422.99 399.50 422.54 397.34 C 419.69 384.17 415.89 371.22 413.34 357.99 C 412.72 356.09 412.76 353.59 411.09 352.25 C 400.66 346.41 390.35 340.34 380.20 334.02 Z" />
</g>
<g id="#9ed7e1ff">
<path fill="#9ed7e1" opacity="1.00" d=" M 524.81 323.76 C 540.41 316.84 559.40 317.26 574.33 325.72 C 588.38 333.86 595.35 350.29 595.17 366.09 C 611.14 366.01 627.10 366.19 643.07 365.97 C 655.07 356.80 666.08 346.32 678.18 337.24 C 679.74 336.59 680.96 338.05 682.02 338.96 C 701.09 358.88 720.33 378.66 739.32 398.65 C 741.28 401.36 740.01 404.89 740.09 407.97 C 738.82 422.61 737.75 437.26 736.31 451.88 C 733.44 471.30 732.54 490.95 730.25 510.43 C 725.37 510.07 721.43 506.92 717.27 504.70 C 704.00 498.29 690.95 491.48 677.54 485.38 C 673.90 480.15 672.63 473.72 670.20 467.91 C 666.25 459.57 663.28 450.81 659.59 442.36 C 659.18 441.09 657.94 440.62 656.76 440.41 C 643.07 437.18 629.27 434.36 615.79 430.35 C 608.14 427.57 602.37 421.56 595.44 417.53 C 572.74 403.84 547.79 394.42 524.84 381.22 C 514.01 375.10 504.49 364.07 505.26 350.96 C 505.21 338.84 514.25 328.61 524.81 323.76 M 518.94 343.00 C 515.11 350.74 516.83 360.93 523.45 366.62 C 528.54 370.87 534.64 373.62 540.57 376.47 C 561.66 387.95 584.15 396.79 604.41 409.77 C 610.25 413.98 615.58 419.54 623.01 420.81 C 638.13 425.25 653.65 428.43 668.64 433.21 C 673.66 447.89 679.00 462.54 685.25 476.72 C 697.01 482.75 708.81 488.80 720.86 494.25 C 723.48 468.49 725.46 442.73 728.00 417.00 C 727.61 411.57 731.40 404.94 726.30 400.73 C 714.75 389.25 703.88 377.13 692.43 365.57 C 688.01 360.76 684.03 355.34 678.50 351.75 C 667.78 359.93 657.71 369.00 646.92 377.02 C 626.38 377.23 605.71 378.26 585.22 376.87 C 582.69 366.66 584.46 355.34 578.96 345.95 C 572.31 334.27 557.85 329.24 544.97 330.18 C 535.19 330.89 524.60 334.50 518.94 343.00 Z" />
</g>
<g id="#61b4e1ff">
<path fill="#61b4e1" opacity="1.00" d=" M 518.94 343.00 C 524.60 334.50 535.19 330.89 544.97 330.18 C 557.85 329.24 572.31 334.27 578.96 345.95 C 584.46 355.34 582.69 366.66 585.22 376.87 C 605.71 378.26 626.38 377.23 646.92 377.02 C 657.71 369.00 667.78 359.93 678.50 351.75 C 684.03 355.34 688.01 360.76 692.43 365.57 C 703.88 377.13 714.75 389.25 726.30 400.73 C 731.40 404.94 727.61 411.57 728.00 417.00 C 725.46 442.73 723.48 468.49 720.86 494.25 C 708.81 488.80 697.01 482.75 685.25 476.72 C 679.00 462.54 673.66 447.89 668.64 433.21 C 653.65 428.43 638.13 425.25 623.01 420.81 C 615.58 419.54 610.25 413.98 604.41 409.77 C 584.15 396.79 561.66 387.95 540.57 376.47 C 534.64 373.62 528.54 370.87 523.45 366.62 C 516.83 360.93 515.11 350.74 518.94 343.00 Z" />
</g>
<g id="#52a0dbff">
<path fill="#52a0db" opacity="1.00" d=" M 380.20 334.02 C 390.35 340.34 400.66 346.41 411.09 352.25 C 412.76 353.59 412.72 356.09 413.34 357.99 C 415.89 371.22 419.69 384.17 422.54 397.34 C 422.99 399.50 423.46 402.42 426.06 402.98 C 443.01 407.47 460.07 411.60 476.98 416.29 C 483.98 418.21 490.07 422.35 496.59 425.41 C 508.08 431.73 519.88 437.46 531.62 443.28 C 544.06 450.10 558.13 454.35 568.93 463.89 C 577.39 471.04 579.77 484.79 573.23 493.97 C 566.97 502.88 555.66 507.30 545.00 507.01 C 530.82 507.66 514.75 502.75 506.54 490.45 C 500.81 480.00 501.40 467.52 501.00 455.97 C 478.77 456.05 456.55 455.95 434.32 456.03 C 424.31 467.48 412.17 476.85 401.26 487.40 C 400.32 488.55 398.46 488.62 397.52 487.43 C 384.45 474.13 372.03 460.21 359.15 446.74 C 357.30 444.91 358.28 442.29 358.72 440.11 C 366.36 404.85 372.12 369.19 380.20 334.02 Z" />
</g>
<g id="#87bddcff">
<path fill="#87bddc" opacity="1.00" d=" M 792.20 385.29 C 800.04 382.16 807.09 377.20 815.23 374.84 C 815.21 435.00 815.39 495.15 815.25 555.30 C 811.92 555.22 809.24 552.90 806.27 551.67 C 785.80 540.50 765.05 529.81 744.48 518.86 C 743.38 513.52 744.99 508.22 745.30 502.91 C 748.30 470.59 751.90 438.32 754.34 405.97 C 754.40 404.75 755.36 403.94 756.05 403.04 C 767.70 396.37 780.21 391.33 792.20 385.29 M 768.88 408.79 C 763.43 410.89 765.79 417.95 764.54 422.38 C 761.45 451.25 758.76 480.14 755.97 509.02 C 754.76 513.77 760.39 514.68 763.41 516.55 C 777.14 523.05 789.89 531.59 803.99 537.24 C 804.00 489.10 804.01 440.97 803.99 392.83 C 791.73 396.62 780.76 403.90 768.88 408.79 Z" />
</g>
<g id="#509dddff">
<path fill="#509ddd" opacity="1.00" d=" M 768.88 408.79 C 780.76 403.90 791.73 396.62 803.99 392.83 C 804.01 440.97 804.00 489.10 803.99 537.24 C 789.89 531.59 777.14 523.05 763.41 516.55 C 760.39 514.68 754.76 513.77 755.97 509.02 C 758.76 480.14 761.45 451.25 764.54 422.38 C 765.79 417.95 763.43 410.89 768.88 408.79 Z" />
</g>
<g id="#89bdd9ff">
<path fill="#89bdd9" opacity="1.00" d=" M 628.97 458.01 C 627.85 453.30 625.06 449.18 624.16 444.42 C 632.45 447.18 641.12 448.64 649.33 451.69 C 654.28 464.45 658.88 477.32 664.01 490.00 C 665.95 496.63 673.65 498.06 678.99 501.03 C 693.97 508.95 709.25 516.31 724.19 524.29 C 693.00 552.09 661.21 579.26 629.70 606.72 C 627.61 608.68 624.61 606.94 622.25 606.58 C 591.57 597.76 560.93 588.89 530.08 580.68 C 528.27 580.50 529.29 578.79 530.18 578.17 C 536.39 572.04 542.99 566.31 549.24 560.22 C 552.74 557.36 555.97 553.27 560.90 553.22 C 585.08 550.48 609.43 538.35 622.19 516.98 C 633.34 499.67 634.48 477.46 628.97 458.01 M 644.11 469.50 C 643.88 478.29 644.53 487.14 642.60 495.80 C 640.07 514.15 628.99 530.25 615.48 542.40 C 601.55 555.04 583.31 561.59 565.00 564.58 C 558.48 564.69 554.72 570.75 550.64 574.95 C 574.50 581.41 598.22 588.37 622.01 595.06 C 625.26 596.69 627.87 594.05 629.90 591.83 C 654.58 569.76 680.02 548.49 704.44 526.18 C 688.71 518.48 673.23 510.24 657.59 502.38 C 651.79 492.05 648.86 480.32 644.11 469.50 Z" />
</g>
<g id="#74a5dbff">
<path fill="#74a5db" opacity="1.00" d=" M 330.04 463.79 C 333.13 462.27 337.88 458.10 339.79 463.19 C 356.51 480.71 373.53 498.07 389.73 516.12 C 386.19 521.04 380.99 524.39 376.91 528.83 C 374.28 530.74 372.23 533.90 368.98 534.66 C 357.98 535.04 346.96 534.68 335.96 534.93 C 316.15 551.76 297.22 569.61 276.91 585.85 C 273.21 590.00 267.15 587.95 262.65 586.44 C 255.52 582.93 252.11 574.65 252.17 567.01 C 252.05 546.31 252.08 525.62 252.18 504.93 C 251.89 502.68 254.48 502.09 255.99 501.22 C 280.62 488.65 305.35 476.25 330.04 463.79 M 263.96 510.09 C 264.01 530.71 264.04 551.34 263.95 571.96 C 266.63 574.49 271.46 577.06 274.55 573.74 C 293.14 558.00 311.32 541.79 329.56 525.65 C 330.56 524.86 331.57 523.78 332.99 524.01 C 343.69 523.98 354.40 524.00 365.10 524.01 C 368.02 521.38 372.08 519.30 373.99 516.00 C 361.67 501.31 347.26 488.33 334.73 473.75 C 311.36 486.25 287.44 497.77 263.96 510.09 Z" />
</g>
<g id="#fefefcff">
<path fill="#fefefc" opacity="1.00" d=" M 440.89 467.63 C 456.93 466.78 473.08 467.48 489.16 466.74 C 489.26 466.92 489.46 467.29 489.56 467.48 C 473.34 467.43 457.11 467.52 440.89 467.63 Z" />
<path fill="#fefefc" opacity="1.00" d=" M 358.05 777.91 C 368.83 776.46 380.12 776.82 390.36 780.76 C 390.32 786.80 390.41 792.84 390.55 798.89 C 381.30 793.14 369.17 790.28 358.84 794.73 C 353.61 796.85 352.25 804.62 357.02 807.97 C 366.73 815.73 380.39 817.58 388.74 827.26 C 396.86 836.86 396.28 853.17 386.44 861.41 C 379.29 867.87 369.23 869.08 359.99 869.26 C 350.94 869.04 341.64 868.34 333.26 864.62 C 333.19 858.01 333.11 851.41 333.29 844.81 C 339.69 849.37 346.77 853.78 354.95 853.66 C 361.03 854.01 368.69 854.18 372.50 848.48 C 375.09 843.91 371.71 838.69 367.80 836.22 C 359.19 830.93 349.05 828.33 341.14 821.86 C 333.34 815.34 331.17 803.71 334.54 794.38 C 338.41 784.91 348.24 779.22 358.05 777.91 Z" />
<path fill="#fefefc" opacity="1.00" d=" M 482.04 826.01 C 485.97 809.68 504.08 799.00 520.29 803.56 C 529.89 805.51 537.86 813.34 540.35 822.77 C 542.19 828.88 541.50 835.32 541.62 841.60 C 527.67 841.69 513.72 841.67 499.77 841.59 C 500.04 849.49 507.12 855.82 514.94 855.62 C 522.38 856.48 529.65 854.46 536.15 850.98 C 536.37 855.43 536.34 859.89 536.36 864.35 C 530.27 868.08 522.95 868.85 515.98 869.28 C 506.80 869.50 496.41 868.31 489.85 861.15 C 480.25 852.43 479.69 837.89 482.04 826.01 M 505.46 818.47 C 502.14 821.23 500.95 825.51 499.68 829.44 C 507.55 828.85 516.16 830.66 523.56 828.28 C 522.18 825.82 523.15 822.75 521.58 820.37 C 518.40 814.84 509.89 814.04 505.46 818.47 Z" />
</g>
<g id="#4d92d8ff">
<path fill="#4d92d8" opacity="1.00" d=" M 644.11 469.50 C 648.86 480.32 651.79 492.05 657.59 502.38 C 673.23 510.24 688.71 518.48 704.44 526.18 C 680.02 548.49 654.58 569.76 629.90 591.83 C 627.87 594.05 625.26 596.69 622.01 595.06 C 598.22 588.37 574.50 581.41 550.64 574.95 C 554.72 570.75 558.48 564.69 565.00 564.58 C 583.31 561.59 601.55 555.04 615.48 542.40 C 628.99 530.25 640.07 514.15 642.60 495.80 C 644.53 487.14 643.88 478.29 644.11 469.50 Z" />
</g>
<g id="#4179d5ff">
<path fill="#4179d5" opacity="1.00" d=" M 263.96 510.09 C 287.44 497.77 311.36 486.25 334.73 473.75 C 347.26 488.33 361.67 501.31 373.99 516.00 C 372.08 519.30 368.02 521.38 365.10 524.01 C 354.40 524.00 343.69 523.98 332.99 524.01 C 331.57 523.78 330.56 524.86 329.56 525.65 C 311.32 541.79 293.14 558.00 274.55 573.74 C 271.46 577.06 266.63 574.49 263.95 571.96 C 264.04 551.34 264.01 530.71 263.96 510.09 Z" />
</g>
<g id="#7bb1dbff">
<path fill="#7bb1db" opacity="1.00" d=" M 378.81 546.81 C 401.34 525.01 424.63 504.01 446.97 482.03 C 450.96 501.48 461.14 519.79 476.74 532.27 C 486.92 540.14 498.50 546.41 510.98 549.72 C 517.13 551.77 523.72 551.89 529.90 553.81 C 512.48 571.36 493.81 587.62 476.27 605.05 C 476.95 618.91 476.49 632.83 476.63 646.71 C 470.14 653.21 462.88 659.09 456.49 665.74 C 460.99 670.75 463.44 678.21 460.54 684.63 C 455.58 696.00 436.25 696.31 431.39 684.68 C 429.09 678.53 429.36 670.27 434.91 665.89 C 438.04 662.27 443.26 661.94 446.49 658.47 C 452.55 652.51 459.25 647.23 465.24 641.20 C 465.20 627.40 465.50 613.59 464.87 599.80 C 478.57 586.84 492.08 573.66 505.80 560.71 C 502.73 558.24 498.74 557.50 495.07 556.38 C 480.80 570.96 465.46 584.47 451.07 598.94 C 451.88 609.93 451.18 620.98 451.60 632.00 C 451.30 634.38 452.51 637.54 450.24 639.24 C 439.01 649.29 427.62 659.16 416.58 669.40 C 415.20 670.35 416.50 671.94 416.95 673.02 C 419.23 677.03 419.82 681.94 418.53 686.36 C 415.81 693.40 407.62 697.68 400.27 696.61 C 393.59 694.89 387.57 689.20 387.36 681.99 C 386.25 673.18 394.13 664.48 403.08 665.05 C 415.83 654.62 427.79 643.22 439.94 632.10 C 439.99 619.14 439.87 606.18 439.86 593.22 C 454.11 579.66 467.61 565.26 482.70 552.61 C 482.67 552.16 482.59 551.25 482.55 550.79 C 478.86 549.01 476.13 545.06 472.23 544.11 C 454.99 560.35 437.73 576.62 420.88 593.26 C 420.33 606.32 421.19 619.56 420.61 632.66 C 404.61 647.00 387.37 660.04 371.37 674.37 C 371.99 679.43 373.15 685.27 369.54 689.56 C 363.26 697.68 349.65 697.83 343.42 689.57 C 338.93 683.25 339.14 673.46 345.17 668.17 C 349.93 663.76 356.99 663.66 362.99 664.97 C 364.44 665.72 365.50 664.29 366.53 663.55 C 380.79 651.31 395.25 639.31 409.24 626.77 C 409.40 614.51 409.23 602.26 409.36 590.01 C 409.25 587.17 412.31 585.82 413.87 583.87 C 430.38 568.33 446.23 552.10 463.20 537.06 C 464.23 536.30 463.23 535.05 462.50 534.51 C 459.72 531.98 457.27 529.14 454.79 526.33 C 435.16 544.54 416.06 563.35 395.53 580.55 C 386.88 588.67 377.71 596.22 368.98 604.25 C 370.36 609.03 370.94 614.69 367.94 619.01 C 363.57 625.97 353.58 628.92 346.38 624.59 C 336.88 620.21 334.87 605.54 342.66 598.66 C 347.55 594.17 355.04 594.21 360.98 596.36 C 381.26 577.49 402.38 559.56 422.52 540.55 C 431.10 532.69 439.30 524.41 448.10 516.80 C 446.30 512.33 443.41 508.34 441.68 503.81 C 421.91 521.61 402.91 540.28 383.38 558.35 C 382.51 559.26 381.37 559.86 380.08 559.78 C 368.77 560.12 357.46 559.80 346.15 559.98 C 329.26 574.15 312.67 588.73 296.17 603.38 C 300.18 611.45 296.95 622.80 288.00 625.83 C 278.22 630.18 265.24 621.93 266.16 610.97 C 265.92 600.66 276.80 591.83 286.85 595.58 C 305.23 580.02 323.31 564.10 341.61 548.44 C 352.98 548.54 364.36 548.70 375.73 548.57 C 376.99 548.59 377.86 547.48 378.81 546.81 M 349.48 606.50 C 345.32 610.50 349.97 617.57 355.35 616.34 C 357.17 614.91 359.80 613.65 359.84 611.00 C 360.41 605.82 352.83 602.04 349.48 606.50 M 279.07 606.23 C 275.90 607.51 275.14 612.14 277.58 614.45 C 280.66 618.00 287.23 616.46 288.48 611.98 C 288.79 607.09 283.15 604.52 279.07 606.23 M 443.14 672.22 C 439.15 674.14 439.13 680.90 443.28 682.67 C 446.51 684.64 451.29 683.00 451.75 679.00 C 453.19 674.15 447.43 670.06 443.14 672.22 M 353.19 675.27 C 349.36 677.40 350.26 684.07 354.16 685.72 C 358.43 688.06 363.92 682.47 361.65 678.22 C 360.30 675.15 356.17 673.43 353.19 675.27 M 401.28 675.38 C 396.21 676.89 396.55 685.28 401.64 686.52 C 405.72 687.95 410.34 683.32 408.65 679.24 C 407.40 676.58 404.33 674.19 401.28 675.38 Z" />
</g>
<g id="#77a8d6ff">
<path fill="#77a8d6" opacity="1.00" d=" M 640.92 615.89 C 673.69 587.91 705.76 559.08 738.77 531.40 C 763.07 544.79 787.73 557.56 811.98 571.01 C 810.98 580.45 802.61 586.45 795.33 591.29 C 750.05 621.06 704.63 650.62 659.29 680.28 C 656.55 681.90 654.21 684.31 651.07 685.14 C 646.92 664.74 642.75 644.34 638.81 623.89 C 638.36 621.06 638.16 617.62 640.92 615.89 M 663.54 611.59 C 658.97 615.59 653.91 619.13 650.11 623.92 C 653.08 638.07 655.91 652.39 659.04 666.41 C 693.57 643.39 728.23 620.52 762.99 597.84 C 774.13 590.44 785.46 583.32 796.27 575.46 C 777.65 565.30 758.77 555.49 740.48 544.78 C 714.70 566.87 689.19 589.33 663.54 611.59 Z" />
</g>
<g id="#4480d5ff">
<path fill="#4480d5" opacity="1.00" d=" M 663.54 611.59 C 689.19 589.33 714.70 566.87 740.48 544.78 C 758.77 555.49 777.65 565.30 796.27 575.46 C 785.46 583.32 774.13 590.44 762.99 597.84 C 728.23 620.52 693.57 643.39 659.04 666.41 C 655.91 652.39 653.08 638.07 650.11 623.92 C 653.91 619.13 658.97 615.59 663.54 611.59 Z" />
</g>
<g id="#71a0d6ff">
<path fill="#71a0d6" opacity="1.00" d=" M 516.67 590.33 C 550.53 599.87 584.06 610.65 617.97 620.09 C 619.40 620.44 620.61 621.31 621.76 622.21 C 625.37 624.50 625.64 628.92 626.47 632.70 C 629.99 650.18 632.98 667.77 637.20 685.11 C 637.55 688.09 639.49 692.27 636.27 694.28 C 621.80 704.30 606.43 712.95 591.86 722.81 C 583.99 727.69 575.54 732.73 566.01 732.92 C 559.00 733.20 551.65 733.89 544.99 731.22 C 534.25 727.21 524.92 720.40 514.97 714.85 C 498.62 704.77 481.76 695.49 465.57 685.18 C 465.34 681.53 465.32 677.87 465.63 674.24 C 476.77 665.16 487.17 655.20 497.91 645.67 C 497.87 633.08 497.90 620.49 497.83 607.90 C 503.41 601.32 510.73 596.55 516.67 590.33 M 520.48 602.96 C 517.15 607.40 511.67 609.98 509.14 615.01 C 508.83 627.29 509.08 639.59 509.01 651.88 C 499.87 659.82 490.42 667.40 481.17 675.22 C 480.03 676.16 479.03 677.33 478.74 678.83 C 498.35 690.86 518.29 702.33 538.03 714.12 C 542.97 716.95 548.14 720.21 554.04 720.12 C 562.71 720.58 572.29 721.02 579.62 715.54 C 594.79 706.52 609.55 696.81 624.47 687.40 C 626.13 683.91 624.52 679.59 623.82 675.92 C 620.89 660.98 617.69 646.09 614.82 631.14 C 583.52 621.25 551.95 612.25 520.48 602.96 Z" />
</g>
<g id="#417ad4ff">
<path fill="#417ad4" opacity="1.00" d=" M 520.48 602.96 C 551.95 612.25 583.52 621.25 614.82 631.14 C 617.69 646.09 620.89 660.98 623.82 675.92 C 624.52 679.59 626.13 683.91 624.47 687.40 C 609.55 696.81 594.79 706.52 579.62 715.54 C 572.29 721.02 562.71 720.58 554.04 720.12 C 548.14 720.21 542.97 716.95 538.03 714.12 C 518.29 702.33 498.35 690.86 478.74 678.83 C 479.03 677.33 480.03 676.16 481.17 675.22 C 490.42 667.40 499.87 659.82 509.01 651.88 C 509.08 639.59 508.83 627.29 509.14 615.01 C 511.67 609.98 517.15 607.40 520.48 602.96 Z" />
</g>
<g id="#fefefdff">
<path fill="#fefefd" opacity="1.00" d=" M 407.21 773.24 C 413.70 773.14 420.20 773.24 426.69 773.40 C 427.79 786.75 426.71 800.24 427.23 813.65 C 433.61 802.99 448.54 799.40 459.13 805.79 C 466.14 810.27 468.31 819.15 468.50 826.97 C 468.58 840.55 468.76 854.14 468.46 867.71 C 462.07 867.99 455.67 867.98 449.28 867.71 C 448.98 854.84 449.37 841.96 449.01 829.10 C 448.99 824.47 446.58 819.59 442.13 817.79 C 435.12 815.39 427.07 821.64 427.24 828.95 C 426.96 841.90 427.42 854.87 426.79 867.82 C 420.31 867.96 413.83 867.93 407.36 867.83 C 406.96 836.30 407.30 804.77 407.21 773.24 Z" />
<path fill="#fefefd" opacity="1.00" d=" M 553.62 773.48 C 560.14 773.25 566.73 773.01 573.23 773.71 C 573.35 805.04 573.43 836.39 573.18 867.71 C 566.72 868.05 560.23 867.89 553.77 867.79 C 553.44 836.36 553.72 804.92 553.62 773.48 Z" />
</g>
<g id="#fefefeff">
<path fill="#fefefe" opacity="1.00" d=" M 590.42 773.41 C 596.76 773.33 603.11 773.11 609.44 773.57 C 610.28 779.66 609.69 785.86 609.86 792.00 C 609.58 817.27 610.36 842.55 609.61 867.80 C 603.12 867.95 596.63 867.90 590.15 867.84 C 590.02 836.38 589.54 804.84 590.42 773.41 Z" />
</g>
<g id="#3872d4ff">
<path fill="#3872d4" opacity="1.00" d=" M 631.36 790.66 C 637.47 788.18 643.92 786.35 650.43 785.41 C 650.89 791.65 650.53 797.92 650.78 804.18 C 655.63 804.44 660.48 804.06 665.33 804.46 C 665.00 809.16 665.66 813.93 664.72 818.58 C 660.46 818.59 656.20 818.44 651.96 818.82 C 650.03 819.60 651.02 822.35 650.71 824.00 C 650.98 832.77 649.68 841.74 651.54 850.39 C 653.57 855.88 660.37 854.83 664.73 853.12 C 664.78 857.80 665.46 862.48 664.67 867.14 C 656.40 869.76 646.72 870.74 639.00 866.07 C 632.67 861.62 630.87 853.30 631.11 846.00 C 630.61 837.26 631.30 828.46 630.59 819.75 C 627.96 817.70 623.94 819.17 620.75 818.33 C 620.98 813.74 620.10 809.00 621.52 804.55 C 624.78 804.39 628.04 804.24 631.30 804.10 C 631.22 799.61 630.44 795.10 631.36 790.66 Z" />
</g>
<g id="#3772d2ff">
<path fill="#3772d2" opacity="1.00" d=" M 668.06 804.19 C 675.11 804.41 682.18 803.96 689.22 804.56 C 693.72 819.42 698.60 834.17 702.93 849.09 C 703.23 848.87 703.82 848.45 704.12 848.23 C 708.23 834.44 712.54 820.69 717.05 807.03 C 718.29 803.27 722.98 804.51 726.00 804.21 C 729.47 804.58 733.59 803.28 736.59 805.55 C 729.67 823.31 723.19 841.27 716.21 859.03 C 711.67 870.24 708.75 883.00 699.46 891.44 C 691.88 898.29 680.76 899.83 671.24 896.58 C 671.08 891.73 671.32 886.88 671.24 882.03 C 677.39 883.26 685.12 884.15 689.40 878.46 C 691.28 874.87 693.01 870.80 693.41 866.80 C 685.63 845.68 676.00 825.27 668.06 804.19 Z" />
</g>
</svg>
